# This file uses centimeters as units for non-parametric coordinates.

mtllib Book.0001.mtl
g default
v -2.562194 -0.500000 3.704120
v 2.562194 -0.500000 3.704120
v -2.562194 0.500000 3.704120
v 2.562194 0.500000 3.704120
v -2.562194 0.500000 -3.704120
v 2.562194 0.500000 -3.704120
v -2.562194 -0.500000 -3.704120
v 2.562194 -0.500000 -3.704120
v -2.419763 -0.428112 3.637383
v 2.419763 -0.428112 3.637383
v 2.419763 0.428112 3.637383
v -2.419763 0.428112 3.637383
v -2.419763 0.428112 -3.637383
v 2.419763 0.428112 -3.637383
v 2.419763 -0.428112 -3.637383
v -2.419763 -0.428112 -3.637383
v -2.562194 0.576900 3.704120
v 2.562194 0.576900 3.704120
v 2.562194 0.576900 -3.704120
v -2.562194 0.576900 -3.704120
v -2.562194 -0.576900 -3.704120
v 2.562194 -0.576900 -3.704120
v 2.562194 -0.576900 3.704120
v -2.562194 -0.576900 3.704120
vt 0.605205 0.395006
vt 0.898768 0.395006
vt 0.898768 0.650973
vt 0.605205 0.650973
vt 0.602512 0.373514
vt 0.901461 0.373514
vt 0.901461 0.672464
vt 0.602512 0.672464
vt 0.602512 0.350525
vt 0.901461 0.350525
vt 0.901461 0.695453
vt 0.602512 0.695453
vt 0.298021 0.373515
vt 0.596970 0.373515
vt 0.596970 0.672464
vt 0.298021 0.672464
vt 0.298021 0.350525
vt 0.596970 0.350525
vt 0.596970 0.695453
vt 0.298021 0.695453
vt 0.001799 0.998008
vt 0.001799 0.699058
vt 0.300748 0.699058
vt 0.300748 0.998008
vt 0.306527 0.699058
vt 0.605476 0.699058
vt 0.605476 0.998008
vt 0.306527 0.998008
vt 0.010109 0.046472
vt 0.292440 0.046472
vt 0.292440 0.302440
vt 0.010109 0.302440
vt 0.001799 0.024981
vt 0.300749 0.024981
vt 0.300749 0.323931
vt 0.001799 0.323931
vt 0.001799 0.001992
vt 0.300749 0.001992
vt 0.300749 0.346920
vt 0.001799 0.346920
vt 0.314836 0.046472
vt 0.597167 0.046472
vt 0.597167 0.302440
vt 0.314836 0.302440
vt 0.306527 0.024981
vt 0.605476 0.024981
vt 0.605476 0.323931
vt 0.306527 0.323931
vt 0.306527 0.001992
vt 0.605476 0.001992
vt 0.605476 0.346920
vt 0.306527 0.346920
vn 0.000000 0.000000 1.000000
vn 0.000000 0.000000 1.000000
vn 0.000000 0.000000 1.000000
vn 0.000000 0.000000 1.000000
vn 0.000000 1.000000 0.000000
vn 0.000000 1.000000 0.000000
vn 0.000000 1.000000 0.000000
vn 0.000000 1.000000 0.000000
vn 0.000000 0.000000 -1.000000
vn 0.000000 0.000000 -1.000000
vn 0.000000 0.000000 -1.000000
vn 0.000000 0.000000 -1.000000
vn 0.000000 -1.000000 0.000000
vn 0.000000 -1.000000 0.000000
vn 0.000000 -1.000000 0.000000
vn 0.000000 -1.000000 0.000000
vn 1.000000 0.000000 0.000000
vn 1.000000 0.000000 0.000000
vn 1.000000 0.000000 0.000000
vn 1.000000 0.000000 0.000000
vn -1.000000 0.000000 0.000000
vn -1.000000 0.000000 0.000000
vn -1.000000 0.000000 0.000000
vn -1.000000 0.000000 0.000000
vn 0.000000 0.680361 0.732877
vn 0.000000 0.680361 0.732877
vn 0.000000 0.680361 0.732877
vn 0.000000 0.680361 0.732877
vn 0.000000 -0.680361 0.732877
vn 0.000000 -0.680361 0.732877
vn 0.000000 -0.680361 0.732877
vn 0.000000 -0.680361 0.732877
vn 0.424292 0.000000 0.905525
vn 0.424292 0.000000 0.905525
vn 0.424292 0.000000 0.905525
vn 0.424292 0.000000 0.905525
vn 0.000000 -0.680361 -0.732877
vn 0.000000 -0.680361 -0.732877
vn 0.000000 -0.680361 -0.732877
vn 0.000000 -0.680361 -0.732877
vn 0.000000 0.680361 -0.732877
vn 0.000000 0.680361 -0.732877
vn 0.000000 0.680361 -0.732877
vn 0.000000 0.680361 -0.732877
vn 0.424292 0.000000 -0.905525
vn 0.424292 0.000000 -0.905525
vn 0.424292 0.000000 -0.905525
vn 0.424292 0.000000 -0.905525
vn 0.450586 0.892733 0.000000
vn 0.450586 0.892733 0.000000
vn 0.450586 0.892733 0.000000
vn 0.450586 0.892733 0.000000
vn 0.450586 -0.892733 0.000000
vn 0.450586 -0.892733 0.000000
vn 0.450586 -0.892733 0.000000
vn 0.450586 -0.892733 0.000000
vn 0.000000 0.000000 1.000000
vn 0.000000 0.000000 1.000000
vn 0.000000 0.000000 1.000000
vn 0.000000 0.000000 1.000000
vn 1.000000 0.000000 0.000000
vn 1.000000 0.000000 0.000000
vn 1.000000 0.000000 0.000000
vn 1.000000 0.000000 0.000000
vn 0.000000 0.000000 -1.000000
vn 0.000000 0.000000 -1.000000
vn 0.000000 0.000000 -1.000000
vn 0.000000 0.000000 -1.000000
vn -1.000000 0.000000 0.000000
vn -1.000000 0.000000 0.000000
vn -1.000000 0.000000 0.000000
vn -1.000000 0.000000 0.000000
vn 0.000000 0.000000 -1.000000
vn 0.000000 0.000000 -1.000000
vn 0.000000 0.000000 -1.000000
vn 0.000000 0.000000 -1.000000
vn 1.000000 0.000000 0.000000
vn 1.000000 0.000000 0.000000
vn 1.000000 0.000000 0.000000
vn 1.000000 0.000000 0.000000
vn 0.000000 0.000000 1.000000
vn 0.000000 0.000000 1.000000
vn 0.000000 0.000000 1.000000
vn 0.000000 0.000000 1.000000
vn -1.000000 0.000000 0.000000
vn -1.000000 0.000000 0.000000
vn -1.000000 0.000000 0.000000
vn -1.000000 0.000000 0.000000
s off
g pCube1
usemtl initialShadingGroup
f 9/29/1 10/30/2 11/31/3 12/32/4
f 17/21/5 18/22/6 19/23/7 20/24/8
f 13/41/9 14/42/10 15/43/11 16/44/12
f 21/25/13 22/26/14 23/27/15 24/28/16
f 10/1/17 15/2/18 14/3/19 11/4/20
f 7/13/21 1/14/22 3/15/23 5/16/24
f 1/33/25 2/34/26 10/30/27 9/29/28
f 4/35/29 3/36/30 12/32/31 11/31/32
f 3/36/33 1/33/34 9/29/35 12/32/36
f 5/45/37 6/46/38 14/42/39 13/41/40
f 8/47/41 7/48/42 16/44/43 15/43/44
f 7/48/45 5/45/46 13/41/47 16/44/48
f 2/5/49 8/6/50 15/2/51 10/1/52
f 6/7/53 4/8/54 11/4/55 14/3/56
f 3/36/57 4/35/58 18/39/59 17/40/60
f 4/8/61 6/7/62 19/11/63 18/12/64
f 6/46/65 5/45/66 20/49/67 19/50/68
f 5/16/69 3/15/70 17/19/71 20/20/72
f 7/48/73 8/47/74 22/51/75 21/52/76
f 8/6/77 2/5/78 23/9/79 22/10/80
f 2/34/81 1/33/82 24/37/83 23/38/84
f 1/14/85 7/13/86 21/17/87 24/18/88
