# This file uses centimeters as units for non-parametric coordinates.

mtllib Door_Arch.mtl
g default
v -3.000000 -0.072531 0.500000
v -2.571429 -0.072531 0.500000
v -2.142857 -0.072531 0.500000
v 2.142857 -0.072531 0.500000
v 2.571429 -0.072531 0.500000
v 3.000000 -0.072531 0.500000
v -3.000000 1.327469 0.500000
v -2.571429 1.327469 0.500000
v -2.142857 1.327469 0.500000
v 2.142857 1.327469 0.500000
v 2.571429 1.327469 0.500000
v 3.000000 1.327469 0.500000
v -3.000000 2.727469 0.500000
v -2.571429 2.727469 0.500000
v -2.142857 2.727469 0.500000
v 2.142857 2.727469 0.500000
v 2.571429 2.727469 0.500000
v 3.000000 2.727469 0.500000
v -3.000000 4.127469 0.500000
v -2.571429 4.127469 0.500000
v -2.142857 4.127469 0.500000
v 2.142857 4.127469 0.500000
v 2.571429 4.127469 0.500000
v 3.000000 4.127469 0.500000
v -3.000000 4.914296 0.500000
v -2.571429 4.914296 0.500000
v -2.142857 4.914296 0.500000
v -2.028196 5.223313 0.500000
v -1.725287 5.502081 0.500000
v -1.253494 5.723313 0.500000
v -0.659001 5.865353 0.500000
v 0.000000 5.914296 0.500000
v 0.659001 5.865353 0.500000
v 1.253495 5.723313 0.500000
v 1.725287 5.502081 0.500000
v 2.028197 5.223313 0.500000
v 2.142857 4.914296 0.500000
v 2.571429 4.914296 0.500000
v 3.000000 4.914296 0.500000
v -3.000000 6.927469 0.500000
v -2.571429 6.927469 0.500000
v -2.028196 6.927469 0.500000
v -1.725287 6.927469 0.500000
v -1.253494 6.927469 0.500000
v -0.659001 6.927469 0.500000
v 0.000000 6.927469 0.500000
v 0.659001 6.927469 0.500000
v 1.253495 6.927469 0.500000
v 1.725287 6.927469 0.500000
v 2.028197 6.927469 0.500000
v 2.571429 6.927469 0.500000
v 3.000000 6.927469 0.500000
v -2.142857 4.914296 0.606414
v -2.028196 5.223313 0.606414
v -1.725287 5.502081 0.606414
v -1.253494 5.723313 0.606414
v -0.659001 5.865353 0.606414
v 0.000000 5.914296 0.606414
v 0.659001 5.865353 0.606414
v 1.253495 5.723313 0.606414
v 1.725287 5.502081 0.606414
v 2.028197 5.223313 0.606414
v 2.142857 4.914296 0.606414
v -2.142857 -0.072531 0.606414
v -2.142857 1.327469 0.606414
v 2.142857 -0.072531 0.606414
v 2.142857 1.327469 0.606414
v -2.142857 2.727469 0.606414
v 2.142857 2.727469 0.606414
v -2.142857 4.127469 0.606414
v 2.142857 4.127469 0.606414
v -2.027889 4.807345 0.606414
v -1.919379 5.099783 0.606414
v -1.632722 5.363595 0.606414
v -1.186242 5.572957 0.606414
v -0.623644 5.707376 0.606414
v 0.000000 5.753694 0.606414
v 0.623644 5.707376 0.606414
v 1.186242 5.572957 0.606414
v 1.632722 5.363595 0.606414
v 1.919380 5.099783 0.606414
v 2.027889 4.807345 0.606414
v -2.027889 -0.072531 0.606414
v -2.027889 1.327469 0.606414
v 2.027889 -0.072531 0.606414
v 2.027889 1.327469 0.606414
v -2.027889 2.727469 0.606414
v 2.027889 2.727469 0.606414
v -2.027889 4.062733 0.606414
v 2.027889 4.062733 0.606414
v -2.027889 4.807345 -0.500000
v -1.919379 5.099783 -0.500000
v -1.632722 5.363595 -0.500000
v -1.186242 5.572957 -0.500000
v -0.623644 5.707376 -0.500000
v 0.000000 5.753694 -0.500000
v 0.623644 5.707376 -0.500000
v 1.186242 5.572957 -0.500000
v 1.632722 5.363595 -0.500000
v 1.919380 5.099783 -0.500000
v 2.027889 4.807345 -0.500000
v -2.027889 -0.072531 -0.500000
v -2.027889 1.327469 -0.500000
v 2.027889 -0.072531 -0.500000
v 2.027889 1.327469 -0.500000
v -2.027889 2.727469 -0.500000
v 2.027889 2.727469 -0.500000
v -2.027889 4.062733 -0.500000
v 2.027889 4.062733 -0.500000
v -3.161361 -0.072531 0.185591
v -3.161361 1.327469 0.185591
v 3.161361 -0.072531 0.185591
v 3.161361 1.327469 0.185591
v -3.161361 2.727469 0.185591
v 3.161361 2.727469 0.185591
v -3.161361 4.127469 0.185591
v 3.161361 4.127469 0.185591
v -3.161361 4.914296 0.185591
v 3.161361 4.914296 0.185591
v -3.161361 6.927469 0.185591
v 3.161361 6.927469 0.185591
v -3.161361 -0.072531 -0.500000
v -3.161361 1.327469 -0.500000
v 3.161361 -0.072531 -0.500000
v 3.161361 1.327469 -0.500000
v -3.161361 2.727469 -0.500000
v 3.161361 2.727469 -0.500000
v -3.161361 4.127469 -0.500000
v 3.161361 4.127469 -0.500000
v -3.161361 4.914296 -0.500000
v 3.161361 4.914296 -0.500000
v -3.161361 6.927469 -0.500000
v 3.161361 6.927469 -0.500000
v -2.834222 7.342660 0.185591
v -2.429333 7.342660 0.185591
v -1.916120 7.342660 0.185591
v -1.629949 7.342660 0.185591
v -1.184227 7.342660 0.185591
v -0.622585 7.342660 0.185591
v 0.000000 7.342660 0.185591
v 0.622585 7.342660 0.185591
v 1.184227 7.342660 0.185591
v 1.629949 7.342660 0.185591
v 1.916120 7.342660 0.185591
v 2.429334 7.342660 0.185591
v 2.834223 7.342660 0.185591
v -2.834222 7.342660 -0.500000
v -2.429333 7.342660 -0.500000
v -1.916120 7.342660 -0.500000
v -1.629949 7.342660 -0.500000
v -1.184227 7.342660 -0.500000
v -0.622585 7.342660 -0.500000
v 0.000000 7.342660 -0.500000
v 0.622585 7.342660 -0.500000
v 1.184227 7.342660 -0.500000
v 1.629949 7.342660 -0.500000
v 1.916120 7.342660 -0.500000
v 2.429334 7.342660 -0.500000
v 2.834223 7.342660 -0.500000
v -3.060642 7.167606 0.185591
v -3.098645 7.167606 -0.500000
v 3.098646 7.167606 -0.500000
v 3.060642 7.167606 0.185591
v -2.917111 7.167606 0.395847
v -2.500381 7.167606 0.395847
v -1.972158 7.167606 0.395847
v -1.677618 7.167606 0.395847
v -1.218861 7.167606 0.395847
v -0.640793 7.167606 0.395847
v 0.000000 7.167606 0.395847
v 0.640793 7.167606 0.395847
v 1.218861 7.167606 0.395847
v 1.677618 7.167606 0.395847
v 1.972159 7.167606 0.395847
v 2.500381 7.167606 0.395847
v 2.917111 7.167606 0.395847
v 2.571429 5.223313 0.500000
v 3.000000 5.223313 0.500000
v 3.161361 5.223313 0.185591
v 3.161361 5.223313 -0.500000
v -3.161362 5.223313 -0.500000
v -3.161362 5.223313 0.185591
v -3.000000 5.223313 0.500000
v -2.571429 5.223313 0.500000
vt 0.098694 0.003963
vt 0.138963 0.003963
vt 0.138963 0.135510
vt 0.098694 0.135510
vt 0.179232 0.003963
vt 0.179232 0.135182
vt 0.581925 0.003963
vt 0.622194 0.003963
vt 0.622194 0.135510
vt 0.581925 0.135228
vt 0.662463 0.003963
vt 0.662463 0.135510
vt 0.138963 0.267056
vt 0.098694 0.267056
vt 0.179232 0.266401
vt 0.622194 0.267056
vt 0.581925 0.266493
vt 0.662463 0.267056
vt 0.138963 0.398602
vt 0.098694 0.398602
vt 0.179232 0.397620
vt 0.622194 0.398602
vt 0.581925 0.397758
vt 0.662463 0.398602
vt 0.138963 0.472533
vt 0.098694 0.472533
vt 0.179232 0.471367
vt 0.622194 0.472533
vt 0.883633 0.001724
vt 0.662463 0.472533
vt 0.098694 0.501569
vt 0.138963 0.501569
vt 0.138963 0.661694
vt 0.098694 0.661694
vt 0.190006 0.501569
vt 0.190006 0.661694
vt 0.929353 0.415585
vt 0.218468 0.661694
vt 0.955902 0.367976
vt 0.262798 0.661694
vt 0.975611 0.306690
vt 0.318658 0.661694
vt 0.983245 0.237357
vt 0.380579 0.661694
vt 0.976709 0.167880
vt 0.442499 0.661694
vt 0.958150 0.106159
vt 0.498359 0.661694
vt 0.932746 0.057737
vt 0.542689 0.661694
vt 0.571151 0.501569
vt 0.571151 0.661694
vt 0.622194 0.501569
vt 0.662463 0.501569
vt 0.662463 0.661694
vt 0.622194 0.661694
vt 0.188879 0.471367
vt 0.898815 0.436542
vt 0.923633 0.405414
vt 0.948155 0.359617
vt 0.966180 0.300634
vt 0.972702 0.233972
vt 0.965747 0.167329
vt 0.947478 0.108351
vt 0.922992 0.062410
vt 0.898478 0.030855
vt 0.877866 0.010348
vt 0.188879 0.003963
vt 0.188879 0.135182
vt 0.572278 0.135228
vt 0.572278 0.003963
vt 0.188879 0.266401
vt 0.572278 0.266493
vt 0.188879 0.397620
vt 0.572278 0.397758
vt 0.202837 0.461128
vt 0.781980 0.065703
vt 0.790297 0.095996
vt 0.797452 0.135043
vt 0.802099 0.181706
vt 0.803653 0.232705
vt 0.802035 0.283508
vt 0.796921 0.329815
vt 0.788918 0.368457
vt 0.779732 0.398725
vt 0.770993 0.424044
vt 0.199301 0.003963
vt 0.200316 0.135120
vt 0.561556 0.135126
vt 0.561856 0.003963
vt 0.201330 0.266278
vt 0.561255 0.266288
vt 0.202297 0.391370
vt 0.560969 0.391385
vt 0.290063 0.460175
vt 0.873907 0.039748
vt 0.884363 0.074613
vt 0.892101 0.120580
vt 0.896939 0.174678
vt 0.898263 0.232952
vt 0.896954 0.291214
vt 0.892163 0.345381
vt 0.884647 0.391461
vt 0.874598 0.426311
vt 0.861227 0.449283
vt 0.286528 0.003011
vt 0.287542 0.134168
vt 0.472310 0.134850
vt 0.472611 0.003688
vt 0.288556 0.265325
vt 0.472010 0.266012
vt 0.289524 0.390417
vt 0.471723 0.391109
vt 0.065488 0.135510
vt 0.065488 0.003963
vt 0.695669 0.003963
vt 0.695669 0.135510
vt 0.065488 0.267056
vt 0.695669 0.267056
vt 0.065488 0.398602
vt 0.695669 0.398602
vt 0.065488 0.472533
vt 0.695669 0.472533
vt 0.065488 0.501569
vt 0.065488 0.661694
vt 0.695669 0.501569
vt 0.695669 0.661694
vt 0.001069 0.135510
vt 0.001069 0.003963
vt 0.760088 0.003963
vt 0.760088 0.135510
vt 0.001069 0.267056
vt 0.760088 0.267056
vt 0.001069 0.398602
vt 0.760088 0.398602
vt 0.001069 0.472533
vt 0.760088 0.472533
vt 0.001069 0.501569
vt 0.001069 0.661694
vt 0.760088 0.501569
vt 0.760088 0.661694
vt 0.093698 0.687004
vt 0.145639 0.686289
vt 0.152315 0.711996
vt 0.080554 0.710429
vt 0.200537 0.711996
vt 0.195272 0.686289
vt 0.222947 0.686289
vt 0.227426 0.711996
vt 0.266053 0.686289
vt 0.269307 0.711996
vt 0.320369 0.686289
vt 0.322080 0.711996
vt 0.380579 0.686289
vt 0.380579 0.711996
vt 0.440789 0.686289
vt 0.439078 0.711996
vt 0.495105 0.686289
vt 0.491850 0.711996
vt 0.538210 0.686289
vt 0.533731 0.711996
vt 0.565886 0.686289
vt 0.560620 0.711996
vt 0.608843 0.711996
vt 0.615518 0.686289
vt 0.667459 0.687004
vt 0.646886 0.711996
vt 0.152315 0.776415
vt 0.114271 0.776415
vt 0.200537 0.776415
vt 0.227426 0.776415
vt 0.269307 0.776415
vt 0.322080 0.776415
vt 0.380579 0.776415
vt 0.439078 0.776415
vt 0.491850 0.776415
vt 0.533731 0.776415
vt 0.560620 0.776415
vt 0.608843 0.776415
vt 0.759243 0.714799
vt 0.760088 0.685014
vt 0.691348 0.685777
vt 0.069809 0.685777
vt 0.001069 0.685015
vt 0.471563 0.460870
vt 0.859992 0.016434
vt 0.654675 0.686289
vt 0.694847 0.713044
vt 0.680603 0.710429
vt 0.106482 0.686289
vt 0.066310 0.713044
vt 0.114271 0.711996
vt 0.695580 0.686162
vt 0.065577 0.686162
vt 0.646886 0.776415
vt 0.001915 0.714799
vt 0.862890 0.008695
vt 0.561856 0.461504
vt 0.560809 0.461146
vt 0.199301 0.461343
vt 0.863335 0.458566
vt 0.773687 0.041311
vt 0.561856 0.391689
vt 0.199301 0.391552
vt 0.561856 0.266493
vt 0.199301 0.266401
vt 0.561856 0.135228
vt 0.199301 0.135182
vt 0.561856 0.003963
vt 0.199301 0.003963
vt 0.882449 0.037035
vt 0.572278 0.471532
vt 0.908081 0.070666
vt 0.932420 0.115235
vt 0.949868 0.171256
vt 0.956450 0.234126
vt 0.950241 0.297006
vt 0.932993 0.352994
vt 0.908581 0.397357
vt 0.882534 0.430420
vt 0.878095 0.455960
vt 0.581925 0.472533
vt 0.581925 0.471532
vt 0.903350 0.021050
vt 0.906799 0.024112
vt 0.542689 0.527762
vt 0.929208 0.053760
vt 0.498359 0.548550
vt 0.955106 0.101015
vt 0.442499 0.561896
vt 0.974773 0.161918
vt 0.380579 0.566495
vt 0.982702 0.230941
vt 0.318658 0.561896
vt 0.976522 0.300215
vt 0.262798 0.548550
vt 0.958136 0.361746
vt 0.218468 0.527762
vt 0.932600 0.409807
vt 0.906223 0.442703
vt 0.902013 0.448159
vt 0.179232 0.472533
vt 0.882849 0.463686
vt 0.581925 0.398602
vt 0.179232 0.398602
vt 0.581925 0.267056
vt 0.179232 0.267056
vt 0.581925 0.135510
vt 0.179232 0.135510
vt 0.581925 0.003963
vt 0.179232 0.003963
vn -0.470330 0.000000 0.882491
vn 0.000000 0.000000 1.000000
vn 0.000000 0.000000 1.000000
vn -0.470330 0.000000 0.882491
vn 0.000000 0.000000 1.000000
vn 0.000000 0.000000 1.000000
vn 0.000000 0.000000 1.000000
vn 0.000000 0.000000 1.000000
vn 0.000000 0.000000 1.000000
vn 0.000000 0.000000 1.000000
vn 0.470330 0.000000 0.882490
vn 0.470330 0.000000 0.882490
vn 0.000000 0.000000 1.000000
vn -0.470330 0.000000 0.882491
vn 0.000000 0.000000 1.000000
vn 0.000000 0.000000 1.000000
vn 0.000000 0.000000 1.000000
vn 0.470330 0.000000 0.882491
vn 0.000000 0.000000 1.000000
vn -0.470330 0.000000 0.882491
vn 0.000000 0.000000 1.000000
vn 0.000000 0.000000 1.000000
vn 0.000000 0.000000 1.000000
vn 0.470330 0.000000 0.882490
vn 0.000000 0.000000 1.000000
vn -0.470330 0.000000 0.882491
vn 0.000000 0.000000 1.000000
vn 0.000000 0.000000 1.000000
vn 0.000000 0.000000 1.000000
vn 0.470330 0.000000 0.882490
vn -0.470330 0.000000 0.882491
vn 0.000000 0.000000 1.000000
vn 0.000000 0.051921 0.998651
vn -0.466290 0.050005 0.883218
vn 0.000000 0.000000 1.000000
vn 0.000000 0.056030 0.998429
vn 0.000000 0.000000 1.000000
vn 0.000000 0.060825 0.998149
vn 0.000000 0.000000 1.000000
vn 0.000000 0.070077 0.997542
vn 0.000000 0.000000 1.000000
vn 0.000000 0.077449 0.996996
vn 0.000000 0.000000 1.000000
vn 0.000000 0.080333 0.996768
vn 0.000000 0.000000 1.000000
vn 0.000000 0.077449 0.996996
vn 0.000000 0.000000 1.000000
vn 0.000000 0.070077 0.997542
vn 0.000000 0.000000 1.000000
vn 0.000000 0.060825 0.998148
vn 0.000000 0.000000 1.000000
vn 0.000000 0.056030 0.998429
vn 0.000000 0.000000 1.000000
vn 0.470330 0.000000 0.882491
vn 0.466290 0.050005 0.883218
vn 0.000000 0.051921 0.998651
vn -0.815224 0.579146 0.000000
vn -0.994571 0.104065 0.000000
vn -0.994571 0.104065 0.000000
vn -0.815224 0.579146 0.000000
vn -0.542274 0.840202 0.000000
vn -0.542274 0.840202 0.000000
vn -0.322487 0.946574 0.000000
vn -0.322487 0.946574 0.000000
vn -0.150622 0.988591 0.000000
vn -0.150622 0.988591 0.000000
vn 0.000000 1.000000 0.000000
vn 0.000000 1.000000 0.000000
vn 0.150622 0.988591 0.000000
vn 0.150622 0.988591 0.000000
vn 0.322487 0.946574 0.000000
vn 0.322487 0.946574 0.000000
vn 0.542274 0.840202 0.000000
vn 0.542274 0.840202 0.000000
vn 0.815224 0.579145 0.000000
vn 0.815224 0.579145 0.000000
vn 0.994571 0.104064 0.000000
vn 0.994571 0.104064 0.000000
vn -1.000000 0.000000 0.000000
vn -1.000000 0.000000 0.000000
vn -1.000000 0.000000 0.000000
vn -1.000000 0.000000 0.000000
vn 1.000000 0.000000 0.000000
vn 1.000000 0.000000 0.000000
vn 1.000000 0.000000 0.000000
vn 1.000000 0.000000 0.000000
vn -1.000000 0.000000 0.000000
vn -1.000000 0.000000 0.000000
vn 1.000000 0.000000 0.000000
vn 1.000000 0.000000 0.000000
vn -1.000000 0.000000 0.000000
vn -1.000000 0.000000 0.000000
vn 1.000000 0.000000 0.000000
vn 1.000000 0.000000 0.000000
vn -0.000000 0.000000 1.000000
vn 0.000000 0.000000 1.000000
vn 0.000000 0.000000 1.000000
vn 0.000000 0.000000 1.000000
vn 0.000000 0.000000 1.000000
vn -0.000000 0.000000 1.000000
vn 0.000000 0.000000 1.000000
vn 0.000000 0.000000 1.000000
vn 0.000000 0.000000 1.000000
vn 0.000000 0.000000 1.000000
vn 0.000000 0.000000 1.000000
vn 0.000000 0.000000 1.000000
vn -0.000000 0.000000 1.000000
vn 0.000000 0.000000 1.000000
vn -0.000000 0.000000 1.000000
vn -0.000000 0.000000 1.000000
vn -0.000000 0.000000 1.000000
vn -0.000000 0.000000 1.000000
vn -0.000000 0.000000 1.000000
vn -0.000000 0.000000 1.000000
vn -0.000000 0.000000 1.000000
vn -0.000000 0.000000 1.000000
vn 0.000000 0.000000 1.000000
vn 0.000000 0.000000 1.000000
vn 0.000000 0.000000 1.000000
vn 0.000000 0.000000 1.000000
vn 0.000000 0.000000 1.000000
vn 0.000000 0.000000 1.000000
vn 0.000000 0.000000 1.000000
vn 0.000000 0.000000 1.000000
vn 0.000000 0.000000 1.000000
vn 0.000000 0.000000 1.000000
vn 0.000000 0.000000 1.000000
vn 0.000000 0.000000 1.000000
vn 0.000000 0.000000 1.000000
vn 0.000000 0.000000 1.000000
vn -0.000000 0.000000 1.000000
vn -0.000000 0.000000 1.000000
vn 0.815224 -0.579146 0.000000
vn 0.994571 -0.104065 0.000000
vn 0.994571 -0.104065 0.000000
vn 0.815224 -0.579146 0.000000
vn 0.542274 -0.840202 0.000000
vn 0.542274 -0.840202 0.000000
vn 0.322487 -0.946574 0.000000
vn 0.322487 -0.946574 0.000000
vn 0.150622 -0.988591 0.000000
vn 0.150622 -0.988591 0.000000
vn 0.000000 -1.000000 0.000000
vn 0.000000 -1.000000 0.000000
vn -0.150622 -0.988591 0.000000
vn -0.150622 -0.988591 0.000000
vn -0.322487 -0.946574 0.000000
vn -0.322487 -0.946574 0.000000
vn -0.542274 -0.840202 0.000000
vn -0.542274 -0.840202 0.000000
vn -0.815224 -0.579145 0.000000
vn -0.815224 -0.579145 0.000000
vn -0.994571 -0.104064 0.000000
vn -0.994571 -0.104064 0.000000
vn 1.000000 0.000000 0.000000
vn 1.000000 0.000000 0.000000
vn 1.000000 0.000000 0.000000
vn 1.000000 0.000000 0.000000
vn -1.000000 0.000000 0.000000
vn -1.000000 0.000000 0.000000
vn -1.000000 0.000000 0.000000
vn -1.000000 0.000000 0.000000
vn 1.000000 0.000000 0.000000
vn 1.000000 0.000000 0.000000
vn -1.000000 0.000000 0.000000
vn -1.000000 0.000000 0.000000
vn 1.000000 0.000000 0.000000
vn 1.000000 0.000000 0.000000
vn -1.000000 0.000000 0.000000
vn -1.000000 0.000000 0.000000
vn -0.987230 0.000000 0.159301
vn -0.987230 0.000000 0.159301
vn 0.987230 0.000000 0.159301
vn 0.987230 0.000000 0.159301
vn -0.987230 0.000000 0.159301
vn 0.987230 0.000000 0.159301
vn -0.987230 0.000000 0.159301
vn 0.987230 0.000000 0.159301
vn -0.987230 0.000000 0.159301
vn 0.987230 0.000000 0.159301
vn -0.987230 0.000000 0.159301
vn -0.986189 0.043260 0.159877
vn 0.987230 0.000000 0.159301
vn 0.986189 0.043260 0.159876
vn -1.000000 0.000000 0.000000
vn -1.000000 0.000000 0.000000
vn 1.000000 0.000000 0.000000
vn 1.000000 0.000000 0.000000
vn -1.000000 0.000000 0.000000
vn 1.000000 0.000000 0.000000
vn -1.000000 0.000000 0.000000
vn 1.000000 0.000000 0.000000
vn -1.000000 0.000000 0.000000
vn 1.000000 0.000000 0.000000
vn -1.000000 0.000000 0.000000
vn -0.999112 0.041992 0.003420
vn 1.000000 0.000000 0.000000
vn 0.999112 0.041992 0.003420
vn -0.273435 0.583854 0.764426
vn 0.000000 0.597288 0.802027
vn 0.000000 0.980496 0.196538
vn -0.223500 0.960782 0.164154
vn 0.000000 0.982057 0.188586
vn 0.000000 0.608082 0.793875
vn 0.000000 0.596339 0.802732
vn 0.000000 0.980359 0.197221
vn 0.000000 0.599207 0.800595
vn 0.000000 0.980774 0.195147
vn 0.000000 0.600578 0.799566
vn 0.000000 0.980972 0.194147
vn 0.000000 0.601002 0.799247
vn 0.000000 0.981034 0.193838
vn 0.000000 0.600579 0.799566
vn 0.000000 0.980972 0.194147
vn 0.000000 0.599207 0.800594
vn 0.000000 0.980774 0.195146
vn 0.000000 0.596339 0.802733
vn 0.000000 0.980359 0.197221
vn 0.000000 0.608081 0.793875
vn 0.000000 0.982057 0.188587
vn 0.000000 0.980496 0.196538
vn 0.000000 0.597288 0.802027
vn 0.273435 0.583854 0.764426
vn 0.223500 0.960782 0.164155
vn 0.000000 1.000000 0.000000
vn -0.259925 0.965602 0.007204
vn 0.000000 1.000000 0.000000
vn 0.000000 1.000000 0.000000
vn 0.000000 1.000000 0.000000
vn 0.000000 1.000000 0.000000
vn 0.000000 1.000000 0.000000
vn 0.000000 1.000000 0.000000
vn 0.000000 1.000000 0.000000
vn 0.000000 1.000000 0.000000
vn 0.000000 1.000000 0.000000
vn 0.000000 1.000000 0.000000
vn 0.259925 0.965602 0.007204
vn 0.789102 0.613873 0.021871
vn 0.790052 0.600210 0.124762
vn -0.790052 0.600211 0.124762
vn -0.789102 0.613873 0.021871
s 1
g pCube1
usemtl unwrapChekcerShaderSG
f 1/1/1 2/2/2 8/3/3 7/4/4
f 2/2/2 3/5/5 9/249/6 8/3/3
f 4/250/7 5/8/8 11/9/9 10/248/10
f 5/8/8 6/11/11 12/12/12 11/9/9
f 7/4/4 8/3/3 14/13/13 13/14/14
f 8/3/3 9/249/6 15/247/15 14/13/13
f 10/248/10 11/9/9 17/16/16 16/246/17
f 11/9/9 12/12/12 18/18/18 17/16/16
f 13/14/14 14/13/13 20/19/19 19/20/20
f 14/13/13 15/247/15 21/245/21 20/19/19
f 16/246/17 17/16/16 23/22/22 22/244/23
f 17/16/16 18/18/18 24/24/24 23/22/22
f 19/20/20 20/19/19 26/25/25 25/26/26
f 20/19/19 21/245/21 27/242/27 26/25/25
f 22/244/23 23/22/22 38/28/28 37/222/29
f 23/22/22 24/24/24 39/30/30 38/28/28
f 183/31/31 184/32/32 41/33/33 40/34/34
f 41/33/33 184/32/32 28/35/35 42/36/36
f 28/35/35 29/238/37 43/38/38 42/36/36
f 29/238/37 30/236/39 44/40/40 43/38/38
f 30/236/39 31/234/41 45/42/42 44/40/40
f 31/234/41 32/232/43 46/44/44 45/42/42
f 32/232/43 33/230/45 47/46/46 46/44/44
f 33/230/45 34/228/47 48/48/48 47/46/46
f 34/228/47 35/226/49 49/50/50 48/48/48
f 35/226/49 36/51/51 50/52/52 49/50/50
f 177/53/53 36/51/51 37/222/29 38/28/28
f 177/53/53 178/54/54 52/55/55 51/56/56
s 3
f 28/241/57 27/243/58 53/221/59 54/58/60
f 29/37/61 28/240/57 54/58/60 55/59/62
f 30/39/63 29/239/61 55/59/62 56/60/64
f 31/41/65 30/237/63 56/60/64 57/61/66
f 32/43/67 31/235/65 57/61/66 58/62/68
f 33/45/69 32/233/67 58/62/68 59/63/70
f 34/47/71 33/231/69 59/63/70 60/64/72
f 35/49/73 34/229/71 60/64/72 61/65/74
f 36/225/75 35/227/73 61/65/74 62/66/76
f 37/29/77 36/224/75 62/66/76 63/67/78
f 9/6/79 3/251/80 64/68/81 65/69/82
f 4/7/83 10/10/84 67/70/85 66/71/86
f 15/15/87 9/6/79 65/69/82 68/72/88
f 10/10/84 16/17/89 69/73/90 67/70/85
f 21/21/91 15/15/87 68/72/88 70/74/92
f 16/17/89 22/23/93 71/75/94 69/73/90
f 27/27/58 21/21/91 70/74/92 53/57/59
f 22/23/93 37/223/77 63/212/78 71/75/94
s 6
f 54/58/95 53/221/96 72/201/97 73/220/98
f 55/59/99 54/58/95 73/220/98 74/219/100
f 56/60/101 55/59/99 74/219/100 75/218/102
f 57/61/103 56/60/101 75/218/102 76/217/104
f 58/62/105 57/61/103 76/217/104 77/216/106
f 59/63/107 58/62/105 77/216/106 78/215/108
f 60/64/109 59/63/107 78/215/108 79/214/110
f 61/65/111 60/64/109 79/214/110 80/213/112
f 62/66/113 61/65/111 80/213/112 81/211/114
f 63/67/115 62/66/113 81/211/114 82/197/116
f 65/69/117 64/68/118 83/87/119 84/208/120
f 66/71/121 67/70/122 86/207/123 85/209/124
f 68/72/125 65/69/117 84/208/120 87/206/126
f 67/70/122 69/73/127 88/205/128 86/207/123
f 70/74/129 68/72/125 87/206/126 89/204/130
f 69/73/127 71/75/131 90/203/132 88/205/128
f 53/57/96 70/74/129 89/204/130 72/200/97
f 71/75/131 63/212/115 82/198/116 90/203/132
s 9
f 73/77/133 72/202/134 91/186/135 92/96/136
f 74/78/137 73/77/133 92/96/136 93/97/138
f 75/79/139 74/78/137 93/97/138 94/98/140
f 76/80/141 75/79/139 94/98/140 95/99/142
f 77/81/143 76/80/141 95/99/142 96/100/144
f 78/82/145 77/81/143 96/100/144 97/101/146
f 79/83/147 78/82/145 97/101/146 98/102/148
f 80/84/149 79/83/147 98/102/148 99/103/150
f 81/85/151 80/84/149 99/103/150 100/104/152
f 82/86/153 81/85/151 100/104/152 101/105/154
f 84/88/155 83/210/156 102/106/157 103/107/158
f 85/90/159 86/89/160 105/108/161 104/109/162
f 87/91/163 84/88/155 103/107/158 106/110/164
f 86/89/160 88/92/165 107/111/166 105/108/161
f 89/93/167 87/91/163 106/110/164 108/112/168
f 88/92/165 90/94/169 109/113/170 107/111/166
f 72/76/134 89/93/167 108/112/168 91/95/135
f 90/94/169 82/199/153 101/185/154 109/113/170
s 1
f 1/1/1 7/4/4 111/114/171 110/115/172
f 12/12/12 6/11/11 112/116/173 113/117/174
f 7/4/4 13/14/14 114/118/175 111/114/171
f 18/18/18 12/12/12 113/117/174 115/119/176
f 13/14/14 19/20/20 116/120/177 114/118/175
f 24/24/24 18/18/18 115/119/176 117/121/178
f 19/20/20 25/26/26 118/122/179 116/120/177
f 39/30/30 24/24/24 117/121/178 119/123/180
f 182/124/181 183/31/31 40/34/34 120/125/182
f 52/55/55 178/54/54 179/126/183 121/127/184
f 110/115/172 111/114/171 123/128/185 122/129/186
f 113/117/174 112/116/173 124/130/187 125/131/188
f 111/114/171 114/118/175 126/132/189 123/128/185
f 115/119/176 113/117/174 125/131/188 127/133/190
f 114/118/175 116/120/177 128/134/191 126/132/189
f 117/121/178 115/119/176 127/133/190 129/135/192
f 116/120/177 118/122/179 130/136/193 128/134/191
f 119/123/180 117/121/178 129/135/192 131/137/194
f 181/138/195 182/124/181 120/125/182 132/139/196
f 121/127/184 179/126/183 180/140/197 133/141/198
f 164/190/199 165/143/200 135/144/201 134/192/202
f 136/146/203 135/144/201 165/143/200 166/147/204
f 166/147/204 167/148/205 137/149/206 136/146/203
f 167/148/205 168/150/207 138/151/208 137/149/206
f 168/150/207 169/152/209 139/153/210 138/151/208
f 169/152/209 170/154/211 140/155/212 139/153/210
f 170/154/211 171/156/213 141/157/214 140/155/212
f 171/156/213 172/158/215 142/159/216 141/157/214
f 172/158/215 173/160/217 143/161/218 142/159/216
f 173/160/217 174/162/219 144/163/220 143/161/218
f 145/164/221 144/163/220 174/162/219 175/165/222
f 175/165/222 176/187/223 146/167/224 145/164/221
f 134/192/202 135/144/201 148/168/225 147/169/226
f 149/170/227 148/168/225 135/144/201 136/146/203
f 136/146/203 137/149/206 150/171/228 149/170/227
f 137/149/206 138/151/208 151/172/229 150/171/228
f 138/151/208 139/153/210 152/173/230 151/172/229
f 139/153/210 140/155/212 153/174/231 152/173/230
f 140/155/212 141/157/214 154/175/232 153/174/231
f 141/157/214 142/159/216 155/176/233 154/175/232
f 142/159/216 143/161/218 156/177/234 155/176/233
f 143/161/218 144/163/220 157/178/235 156/177/234
f 158/179/236 157/178/235 144/163/220 145/164/221
f 145/164/221 146/167/224 159/195/237 158/179/236
f 121/127/184 133/141/198 162/181/238 163/193/239
f 132/139/196 120/125/182 160/194/240 161/184/241
f 161/184/241 160/194/240 134/191/202 147/196/226
f 163/193/239 162/181/238 159/180/237 146/188/224
f 160/183/240 164/142/199 134/145/202
f 176/166/223 163/182/239 146/189/224
f 40/34/34 41/33/33 165/143/200 164/190/199
f 165/143/200 41/33/33 42/36/36 166/147/204
f 42/36/36 43/38/38 167/148/205 166/147/204
f 43/38/38 44/40/40 168/150/207 167/148/205
f 44/40/40 45/42/42 169/152/209 168/150/207
f 45/42/42 46/44/44 170/154/211 169/152/209
f 46/44/44 47/46/46 171/156/213 170/154/211
f 47/46/46 48/48/48 172/158/215 171/156/213
f 48/48/48 49/50/50 173/160/217 172/158/215
f 49/50/50 50/52/52 174/162/219 173/160/217
f 174/162/219 50/52/52 51/56/56 175/165/222
f 51/56/56 52/55/55 176/187/223 175/165/222
f 121/127/184 163/182/239 176/166/223 52/55/55
f 120/125/182 40/34/34 164/142/199 160/183/240
f 38/28/28 39/30/30 178/54/54 177/53/53
f 179/126/183 178/54/54 39/30/30 119/123/180
f 180/140/197 179/126/183 119/123/180 131/137/194
f 118/122/179 182/124/181 181/138/195 130/136/193
f 25/26/26 183/31/31 182/124/181 118/122/179
f 25/26/26 26/25/25 184/32/32 183/31/31
f 50/52/52 36/51/51 177/53/53 51/56/56
f 28/35/35 184/32/32 26/25/25 27/242/27
