# This file uses centimeters as units for non-parametric coordinates.

mtllib Floor_Runner.mtl
g default
v -6.000000 1.979264 2.000000
v -4.000000 1.979264 2.000000
v -2.000000 1.979264 2.000000
v 0.000000 1.979264 2.000000
v 2.000000 1.979264 2.000000
v 4.000000 1.979264 2.000000
v 6.000000 1.979264 2.000000
v -6.000000 1.979264 0.000000
v -4.000000 1.979264 0.000000
v -2.000000 1.979264 0.000000
v 0.000000 1.979264 0.000000
v 2.000000 1.979264 0.000000
v 4.000000 1.979264 0.000000
v 6.000000 1.979264 0.000000
v -6.000000 1.979264 -2.000000
v -4.000000 1.979264 -2.000000
v -2.000000 1.979264 -2.000000
v 0.000000 1.979264 -2.000000
v 2.000000 1.979264 -2.000000
v 4.000000 1.979264 -2.000000
v 6.000000 1.979264 -2.000000
v -6.224829 1.944585 2.074943
v -4.149886 1.944585 2.074943
v -6.224829 1.944585 -0.000000
v -2.074943 1.944585 2.074943
v -0.000000 1.944585 2.074943
v 2.074943 1.944585 2.074943
v 4.149886 1.944585 2.074943
v 6.224829 1.944585 2.074943
v 6.224829 1.944585 -0.000000
v -6.224829 1.944585 -2.074943
v 6.224829 1.944585 -2.074943
v -4.149886 1.944585 -2.074943
v -2.074943 1.944585 -2.074943
v -0.000000 1.944585 -2.074943
v 2.074943 1.944585 -2.074943
v 4.149886 1.944585 -2.074943
vt 0.006660 0.980021
vt 0.006660 0.820014
vt 0.166667 0.820014
vt 0.166667 0.980021
vt 0.000664 0.998008
vt 0.000664 0.832005
vt 0.006660 0.660007
vt 0.166667 0.660007
vt 0.326674 0.820014
vt 0.326674 0.980021
vt 0.166667 0.998008
vt 0.000664 0.666003
vt 0.006660 0.500000
vt 0.166667 0.500000
vt 0.326674 0.660007
vt 0.332669 0.832005
vt 0.332669 0.998008
vt 0.000664 0.500000
vt 0.006660 0.339993
vt 0.166667 0.339993
vt 0.326674 0.500000
vt 0.332669 0.666003
vt 0.000664 0.333997
vt 0.006660 0.179986
vt 0.166667 0.179986
vt 0.326674 0.339993
vt 0.332669 0.500000
vt 0.000664 0.167995
vt 0.006660 0.019979
vt 0.166667 0.019979
vt 0.326674 0.179986
vt 0.332669 0.333997
vt 0.000664 0.001992
vt 0.166667 0.001992
vt 0.326674 0.019979
vt 0.332669 0.167995
vt 0.332669 0.001992
vn 0.000000 1.000000 0.000000
vn 0.000000 1.000000 0.000000
vn 0.000000 1.000000 0.000000
vn 0.000000 1.000000 0.000000
vn 0.000000 1.000000 0.000000
vn 0.000000 1.000000 0.000000
vn 0.000000 1.000000 0.000000
vn 0.000000 1.000000 0.000000
vn 0.000000 1.000000 0.000000
vn 0.000000 1.000000 0.000000
vn 0.000000 1.000000 0.000000
vn 0.000000 1.000000 0.000000
vn 0.000000 1.000000 0.000000
vn 0.000000 1.000000 0.000000
vn 0.000000 1.000000 0.000000
vn 0.000000 1.000000 0.000000
vn 0.000000 1.000000 0.000000
vn 0.000000 1.000000 0.000000
vn 0.000000 1.000000 0.000000
vn 0.000000 1.000000 0.000000
vn 0.000000 1.000000 0.000000
vn 0.000000 1.000000 0.000000
vn 0.000000 1.000000 0.000000
vn 0.000000 1.000000 0.000000
vn 0.000000 1.000000 0.000000
vn 0.000000 1.000000 0.000000
vn 0.000000 1.000000 0.000000
vn 0.000000 1.000000 0.000000
vn 0.000000 1.000000 0.000000
vn 0.000000 1.000000 0.000000
vn 0.000000 1.000000 0.000000
vn 0.000000 1.000000 0.000000
vn 0.000000 1.000000 0.000000
vn 0.000000 1.000000 0.000000
vn 0.000000 1.000000 0.000000
vn 0.000000 1.000000 0.000000
vn 0.000000 1.000000 0.000000
vn 0.000000 1.000000 0.000000
vn 0.000000 1.000000 0.000000
vn 0.000000 1.000000 0.000000
vn 0.000000 1.000000 0.000000
vn 0.000000 1.000000 0.000000
vn 0.000000 1.000000 0.000000
vn 0.000000 1.000000 0.000000
vn 0.000000 1.000000 0.000000
vn 0.000000 1.000000 0.000000
vn 0.000000 1.000000 0.000000
vn 0.000000 1.000000 0.000000
vn 0.000000 0.907546 0.419953
vn 0.000000 0.907546 0.419953
vn 0.000000 0.907546 0.419953
vn 0.000000 0.907546 0.419953
vn -0.152442 0.988312 0.000000
vn -0.152442 0.988312 0.000000
vn -0.152442 0.988312 0.000000
vn -0.152442 0.988312 0.000000
vn 0.000000 0.907546 0.419953
vn 0.000000 0.907546 0.419953
vn 0.000000 0.907546 0.419953
vn 0.000000 0.907546 0.419953
vn 0.000000 0.907546 0.419953
vn 0.000000 0.907546 0.419953
vn 0.000000 0.907546 0.419953
vn 0.000000 0.907546 0.419953
vn 0.000000 0.907546 0.419953
vn 0.000000 0.907546 0.419953
vn 0.000000 0.907546 0.419953
vn 0.000000 0.907546 0.419953
vn 0.000000 0.907546 0.419953
vn 0.000000 0.907546 0.419953
vn 0.000000 0.907546 0.419953
vn 0.000000 0.907546 0.419953
vn 0.000000 0.907546 0.419953
vn 0.000000 0.907546 0.419953
vn 0.000000 0.907546 0.419953
vn 0.000000 0.907546 0.419953
vn 0.152442 0.988312 0.000000
vn 0.152442 0.988312 0.000000
vn 0.152442 0.988312 0.000000
vn 0.152442 0.988312 0.000000
vn -0.152442 0.988312 0.000000
vn -0.152442 0.988312 0.000000
vn -0.152442 0.988312 0.000000
vn -0.152442 0.988312 0.000000
vn 0.152442 0.988312 0.000000
vn 0.152442 0.988312 0.000000
vn 0.152442 0.988312 0.000000
vn 0.152442 0.988312 0.000000
vn 0.000000 0.907546 -0.419953
vn 0.000000 0.907546 -0.419953
vn 0.000000 0.907546 -0.419953
vn 0.000000 0.907546 -0.419953
vn 0.000000 0.907546 -0.419953
vn 0.000000 0.907546 -0.419953
vn 0.000000 0.907546 -0.419953
vn 0.000000 0.907546 -0.419953
vn 0.000000 0.907546 -0.419953
vn 0.000000 0.907546 -0.419953
vn 0.000000 0.907546 -0.419953
vn 0.000000 0.907546 -0.419953
vn 0.000000 0.907546 -0.419953
vn 0.000000 0.907546 -0.419953
vn 0.000000 0.907546 -0.419953
vn 0.000000 0.907546 -0.419953
vn 0.000000 0.907546 -0.419953
vn 0.000000 0.907546 -0.419953
vn 0.000000 0.907546 -0.419953
vn 0.000000 0.907546 -0.419953
vn 0.000000 0.907546 -0.419953
vn 0.000000 0.907546 -0.419953
vn 0.000000 0.907546 -0.419953
vn 0.000000 0.907546 -0.419953
s off
g pPlane1
usemtl pPlane1SG
f 1/1/1 2/2/2 9/3/3 8/4/4
f 2/2/5 3/7/6 10/8/7 9/3/8
f 3/7/9 4/13/10 11/14/11 10/8/12
f 4/13/13 5/19/14 12/20/15 11/14/16
f 5/19/17 6/24/18 13/25/19 12/20/20
f 6/24/21 7/29/22 14/30/23 13/25/24
f 8/4/25 9/3/26 16/9/27 15/10/28
f 9/3/29 10/8/30 17/15/31 16/9/32
f 10/8/33 11/14/34 18/21/35 17/15/36
f 11/14/37 12/20/38 19/26/39 18/21/40
f 12/20/41 13/25/42 20/31/43 19/26/44
f 13/25/45 14/30/46 21/35/47 20/31/48
f 2/2/49 1/1/50 22/5/51 23/6/52
f 1/1/53 8/4/54 24/11/55 22/5/56
f 3/7/57 2/2/58 23/6/59 25/12/60
f 4/13/61 3/7/62 25/12/63 26/18/64
f 5/19/65 4/13/66 26/18/67 27/23/68
f 6/24/69 5/19/70 27/23/71 28/28/72
f 7/29/73 6/24/74 28/28/75 29/33/76
f 14/30/77 7/29/78 29/33/79 30/34/80
f 8/4/81 15/10/82 31/17/83 24/11/84
f 21/35/85 14/30/86 30/34/87 32/37/88
f 15/10/89 16/9/90 33/16/91 31/17/92
f 16/9/93 17/15/94 34/22/95 33/16/96
f 17/15/97 18/21/98 35/27/99 34/22/100
f 18/21/101 19/26/102 36/32/103 35/27/104
f 19/26/105 20/31/106 37/36/107 36/32/108
f 20/31/109 21/35/110 32/37/111 37/36/112
