# This file uses centimeters as units for non-parametric coordinates.

mtllib Pillar_UV.mtl
g default
v -0.427944 0.000000 0.427944
v 0.000000 0.000000 0.427944
v 0.427944 0.000000 0.427944
v -0.427944 0.117898 0.427944
v 0.000000 0.117898 0.427944
v 0.427944 0.117898 0.427944
v -0.290324 0.186924 0.290324
v 0.000000 0.186924 0.290324
v 0.290324 0.186924 0.290324
v -0.290324 0.186924 0.000000
v 0.290324 0.186924 0.000000
v -0.290324 0.186924 -0.290324
v 0.000000 0.186924 -0.290324
v 0.290324 0.186924 -0.290324
v -0.427944 0.117898 -0.427944
v 0.000000 0.117898 -0.427944
v 0.427944 0.117898 -0.427944
v -0.427944 0.000000 -0.427944
v 0.000000 0.000000 -0.427944
v 0.427944 0.000000 -0.427944
v -0.427944 0.000000 0.000000
v 0.000000 0.000000 0.000000
v 0.427944 0.000000 0.000000
v 0.427944 0.117898 0.000000
v -0.427944 0.117898 0.000000
v -0.179311 0.186924 0.179328
v 0.000000 0.186924 0.251534
v -0.251511 0.186924 0.000000
v 0.179311 0.186924 0.179328
v 0.251511 0.186924 0.000000
v 0.000000 0.186924 -0.251534
v -0.179311 0.186924 -0.179328
v 0.179311 0.186924 -0.179328
v -0.179311 3.170319 0.179328
v 0.000000 3.170319 0.251534
v -0.251511 3.170319 0.000000
v 0.179311 3.170319 0.179328
v 0.251511 3.170319 0.000000
v 0.000000 3.170319 -0.251534
v -0.179311 3.170319 -0.179328
v 0.179311 3.170319 -0.179328
v -0.405277 3.233197 0.405313
v 0.000000 3.233197 0.405313
v -0.405277 3.233197 -0.000000
v 0.405277 3.233197 0.405313
v 0.405277 3.233197 -0.000000
v 0.000000 3.233197 -0.405313
v -0.405277 3.233197 -0.405313
v 0.405277 3.233197 -0.405313
v -0.405277 3.341415 0.405313
v 0.000000 3.341415 0.405313
v 0.000000 3.341414 -0.000000
v -0.405277 3.341415 -0.000000
v 0.405277 3.341415 0.405313
v 0.405277 3.341415 -0.000000
v 0.000000 3.341415 -0.405313
v -0.405277 3.341415 -0.405313
v 0.405277 3.341415 -0.405313
v 0.284184 3.171466 -0.000000
v 0.284184 3.171466 0.284209
v 0.000000 3.171466 0.284209
v -0.284184 3.171466 0.284209
v -0.284184 3.171466 -0.000000
v -0.284184 3.171466 -0.284209
v 0.000000 3.171466 -0.284209
v 0.284184 3.171466 -0.284209
v -0.098384 0.186924 0.236403
v -0.098384 3.170319 0.236403
v -0.236382 0.186924 0.098393
v -0.236382 3.170319 0.098393
v 0.098384 0.186924 0.236403
v 0.098384 3.170319 0.236403
v 0.236382 0.186924 0.098393
v 0.236382 3.170319 0.098393
v -0.098384 0.186924 -0.236403
v -0.098384 3.170319 -0.236403
v -0.236382 0.186924 -0.098393
v -0.236382 3.170319 -0.098393
v 0.236382 0.186924 -0.098393
v 0.236382 3.170319 -0.098393
v 0.098384 0.186924 -0.236403
v 0.098384 3.170319 -0.236403
v -0.142092 3.171466 -0.284209
v -0.202638 3.233197 -0.405313
v -0.202638 3.341415 -0.405313
v -0.202638 3.341414 -0.000000
v -0.202638 3.341415 0.405313
v -0.202638 3.233197 0.405313
v -0.142092 3.171466 0.284209
v 0.142092 3.171466 -0.284209
v 0.202638 3.233197 -0.405313
v 0.202638 3.341415 -0.405313
v 0.202638 3.341414 -0.000000
v 0.202638 3.341415 0.405313
v 0.202638 3.233197 0.405313
v 0.142092 3.171466 0.284209
v -0.284184 3.171466 -0.142105
v -0.405277 3.233197 -0.202657
v -0.405277 3.341415 -0.202657
v -0.202638 3.341414 -0.202657
v 0.000000 3.341414 -0.202657
v 0.202638 3.341414 -0.202657
v 0.405277 3.341415 -0.202657
v 0.405277 3.233197 -0.202657
v 0.284184 3.171466 -0.142105
v -0.284184 3.171466 0.142105
v -0.405277 3.233197 0.202657
v -0.405277 3.341415 0.202657
v -0.202638 3.341414 0.202657
v 0.000000 3.341414 0.202657
v 0.202638 3.341414 0.202657
v 0.405277 3.341415 0.202657
v 0.405277 3.233197 0.202657
v 0.284184 3.171466 0.142105
v 0.290324 0.186924 0.145162
v 0.427944 0.117898 0.213972
v 0.427944 0.000000 0.213972
v 0.000000 0.000000 0.213972
v -0.427944 0.000000 0.213972
v -0.427944 0.117898 0.213972
v -0.290324 0.186924 0.145162
v -0.290324 0.186924 -0.147354
v -0.427944 0.117898 -0.213972
v -0.427944 0.000000 -0.213972
v 0.000000 0.000000 -0.213972
v 0.427944 0.000000 -0.213972
v 0.427944 0.117898 -0.213972
v 0.290324 0.186924 -0.145162
v -0.145162 0.186924 0.290324
v -0.213972 0.117898 0.427944
v -0.213972 0.000000 0.427944
v -0.213972 0.000000 0.213972
v -0.213972 0.000000 0.000000
v -0.213972 0.000000 -0.213972
v -0.213972 0.000000 -0.427944
v -0.213972 0.117898 -0.427944
v -0.145162 0.186924 -0.290324
v 0.145162 0.186924 0.290324
v 0.213972 0.117898 0.427944
v 0.213972 0.000000 0.427944
v 0.213972 0.000000 0.213972
v 0.213972 0.000000 0.000000
v 0.213972 0.000000 -0.213972
v 0.213972 0.000000 -0.427944
v 0.213972 0.117898 -0.427944
v 0.145162 0.186924 -0.290324
vt 0.254684 0.723089
vt 0.159263 0.187293
vt 0.249685 0.859983
vt 0.251151 0.757259
vt 0.247071 0.186769
vt 0.244805 0.959924
vt 0.213468 0.859176
vt 0.214136 0.791027
vt 0.211565 0.925546
vt 0.045784 0.210737
vt 0.015769 0.347732
vt 0.154523 0.605463
vt 0.155432 0.208107
vt 0.018967 0.455515
vt 0.154837 0.485811
vt 0.293395 0.347854
vt 0.291373 0.240054
vt 0.262299 0.483025
vt 0.075377 0.789265
vt 0.075892 0.857339
vt 0.039421 0.858051
vt 0.039598 0.754965
vt 0.077857 0.924685
vt 0.044123 0.959295
vt 0.158217 0.011674
vt 0.070408 0.012202
vt 0.043655 0.987165
vt 0.158737 0.099494
vt 0.143726 0.720592
vt 0.144768 0.988952
vt 0.144826 0.961329
vt 0.145049 0.925385
vt 0.143915 0.750114
vt 0.143903 0.787894
vt 0.499360 0.007839
vt 0.429586 0.008108
vt 0.918429 0.005812
vt 0.569210 0.007083
vt 0.639063 0.006816
vt 0.848591 0.006048
vt 0.778760 0.006303
vt 0.708912 0.006553
vt 0.082276 0.347520
vt 0.103681 0.296637
vt 0.155075 0.275070
vt 0.103838 0.398249
vt 0.154725 0.419502
vt 0.205931 0.296684
vt 0.227144 0.347560
vt 0.205551 0.398133
vt 0.080120 0.347524
vt 0.080940 0.273937
vt 0.155080 0.272901
vt 0.081344 0.420858
vt 0.154728 0.421655
vt 0.228618 0.274184
vt 0.229294 0.347567
vt 0.228014 0.420688
vt 0.046767 0.240016
vt 0.044420 0.347619
vt 0.155246 0.236970
vt 0.047745 0.454669
vt 0.154784 0.457265
vt 0.264862 0.347714
vt 0.262588 0.240606
vt 0.261556 0.454342
vt 0.079257 0.857283
vt 0.099304 0.902802
vt 0.145076 0.922048
vt 0.143876 0.791345
vt 0.097662 0.810951
vt 0.190511 0.903815
vt 0.782287 0.988050
vt 0.712498 0.988299
vt 0.642717 0.988550
vt 0.921882 0.987574
vt 0.852079 0.987811
vt 0.572933 0.988806
vt 0.503163 0.989064
vt 0.433396 0.989329
vt 0.156193 0.693579
vt 0.244168 0.692118
vt 0.242856 0.604619
vt 0.242736 0.516725
vt 0.154414 0.516962
vt 0.065802 0.517264
vt 0.067894 0.695126
vt 0.066224 0.606352
vt 0.290208 0.455182
vt 0.263558 0.211719
vt 0.017893 0.239466
vt 0.047087 0.483436
vt 0.038158 0.725912
vt 0.070932 0.100006
vt 0.011315 0.858705
vt 0.011027 0.755065
vt 0.246548 0.098958
vt 0.246024 0.011154
vt 0.277607 0.860851
vt 0.272481 0.961298
vt 0.071455 0.187817
vt 0.016106 0.960601
vt 0.245173 0.987568
vt 0.210120 0.859128
vt 0.191240 0.812689
vt 0.991689 0.987335
vt 0.988248 0.005565
vt 0.279549 0.757759
vt 0.200680 0.835909
vt 0.464473 0.007973
vt 0.468279 0.989197
vt 0.092979 0.322078
vt 0.167558 0.802017
vt 0.953339 0.005688
vt 0.956786 0.987454
vt 0.129378 0.285853
vt 0.200315 0.881472
vt 0.534285 0.007461
vt 0.538048 0.988935
vt 0.093057 0.372884
vt 0.167793 0.912932
vt 0.604137 0.006949
vt 0.607825 0.988678
vt 0.129282 0.408875
vt 0.088460 0.834117
vt 0.813675 0.006175
vt 0.817183 0.987930
vt 0.216538 0.322122
vt 0.120769 0.801148
vt 0.883510 0.005930
vt 0.886980 0.987692
vt 0.180503 0.285877
vt 0.122190 0.912425
vt 0.673988 0.006684
vt 0.677608 0.988424
vt 0.180138 0.408817
vt 0.089281 0.880043
vt 0.743836 0.006428
vt 0.747393 0.988175
vt 0.216348 0.372846
vt 0.228956 0.310876
vt 0.263725 0.294160
vt 0.112044 0.694352
vt 0.292384 0.293954
vt 0.110374 0.605907
vt 0.110108 0.517113
vt 0.016831 0.293599
vt 0.045594 0.293817
vt 0.080530 0.310730
vt 0.228654 0.384127
vt 0.263209 0.401028
vt 0.200181 0.692848
vt 0.291801 0.401518
vt 0.198689 0.605041
vt 0.198575 0.516843
vt 0.017368 0.401624
vt 0.046083 0.401144
vt 0.080732 0.384191
vt 0.191849 0.273543
vt 0.208917 0.238788
vt 0.067059 0.650739
vt 0.209495 0.209913
vt 0.111209 0.650130
vt 0.155358 0.649521
vt 0.199435 0.648945
vt 0.243512 0.648368
vt 0.208568 0.484418
vt 0.208170 0.455803
vt 0.191371 0.421171
vt 0.118010 0.273419
vt 0.101006 0.238493
vt 0.066013 0.561808
vt 0.100608 0.209422
vt 0.110241 0.561510
vt 0.154469 0.561213
vt 0.198632 0.560942
vt 0.242796 0.560672
vt 0.100962 0.484623
vt 0.101264 0.455967
vt 0.118036 0.421256
vt 0.178307 0.925466
vt 0.194815 0.960626
vt 0.246810 0.142864
vt 0.194971 0.988260
vt 0.159000 0.143394
vt 0.071194 0.143911
vt 0.199205 0.721840
vt 0.197533 0.753687
vt 0.179020 0.789461
vt 0.109123 0.788590
vt 0.091756 0.752540
vt 0.070670 0.056104
vt 0.090942 0.723252
vt 0.158477 0.055584
vt 0.246286 0.055056
vt 0.094212 0.988059
vt 0.094474 0.960312
vt 0.111453 0.925035
vt 0.213802 0.825102
vt 0.250418 0.808621
vt 0.278578 0.809305
vt 0.115359 0.187555
vt 0.115097 0.143653
vt 0.114835 0.099750
vt 0.114573 0.055844
vt 0.011171 0.806885
vt 0.114312 0.011938
vt 0.039510 0.806508
vt 0.075634 0.823302
vt 0.212517 0.892361
vt 0.247245 0.909954
vt 0.275044 0.911075
vt 0.203167 0.187031
vt 0.202905 0.143129
vt 0.202643 0.099226
vt 0.202381 0.055320
vt 0.013711 0.909653
vt 0.202120 0.011414
vt 0.041772 0.908673
vt 0.076874 0.891012
vn 0.000000 0.549010 0.835816
vn 0.000000 -0.875847 0.482589
vn 0.000000 -0.875847 0.482589
vn 0.000000 0.549010 0.835816
vn 0.000000 0.549010 0.835816
vn 0.000000 -0.875847 0.482589
vn 0.434625 -0.788798 0.434625
vn 0.616310 0.490227 0.616311
vn 0.000000 0.941779 0.336232
vn 0.000000 0.926568 0.376128
vn 0.000000 0.941779 0.336232
vn 0.207258 0.956079 0.207259
vn 0.000001 1.000000 0.000000
vn 0.000000 1.000000 -0.000001
vn 0.000000 1.000000 -0.000001
vn 0.000000 1.000000 0.000000
vn -0.000001 1.000000 0.000000
vn -0.000000 1.000000 -0.000001
vn 0.471074 0.882094 -0.000001
vn 0.471073 0.882094 0.000000
vn 0.000000 0.882111 -0.471041
vn 0.000000 1.000000 0.000001
vn 0.000000 1.000000 0.000001
vn 0.000000 0.882111 -0.471042
vn -0.000000 0.882111 -0.471041
vn -0.000000 1.000000 0.000001
vn 0.471074 0.882094 0.000001
vn 0.426164 0.797999 -0.426125
vn 0.000000 0.549010 -0.835816
vn 0.000000 0.941779 -0.336232
vn 0.000000 0.926568 -0.376128
vn 0.000000 0.549010 -0.835816
vn 0.000000 0.549010 -0.835816
vn 0.000000 0.941779 -0.336232
vn 0.207258 0.956079 -0.207258
vn 0.616310 0.490227 -0.616310
vn 0.000000 -0.875847 -0.482589
vn 0.000000 -0.875847 -0.482589
vn 0.000000 -0.875847 -0.482589
vn 0.434625 -0.788798 -0.434625
vn 0.000000 -1.000000 0.000000
vn 0.000000 -1.000000 0.000000
vn 0.000000 -1.000000 0.000000
vn 0.000000 -1.000000 0.000000
vn 0.000000 -1.000000 0.000000
vn 0.000000 -1.000000 0.000000
vn 0.482589 -0.875847 0.000000
vn 0.482589 -0.875847 0.000000
vn 0.000000 -1.000000 0.000000
vn 0.000000 -1.000000 0.000000
vn 0.000000 -1.000000 0.000000
vn 0.482589 -0.875847 0.000000
vn 0.835816 0.549010 0.000000
vn 0.835816 0.549010 0.000000
vn 0.835816 0.549010 0.000000
vn 0.336218 0.941784 -0.000000
vn 0.376098 0.926580 0.000000
vn 0.336218 0.941784 0.000000
vn -0.836106 0.548568 0.000000
vn -0.482589 -0.875847 0.000000
vn -0.482589 -0.875847 0.000000
vn -0.835301 0.549793 0.000000
vn -0.482589 -0.875847 0.000000
vn -0.835816 0.549010 0.000000
vn -0.616297 0.489316 -0.617048
vn -0.336247 0.941774 -0.000000
vn -0.206611 0.956085 -0.207880
vn -0.336218 0.941784 0.000000
vn -0.375974 0.926630 -0.000000
vn -0.207258 0.956079 0.207259
vn -0.373340 0.032476 0.927126
vn -0.706452 0.044045 0.706389
vn -0.927149 0.032484 0.373282
vn -0.999761 0.021875 -0.000000
vn 0.373340 0.032476 0.927126
vn 0.000000 0.021756 0.999763
vn 0.927149 0.032484 0.373282
vn 0.706452 0.044045 0.706389
vn -0.373340 0.032476 -0.927126
vn 0.000000 0.021756 -0.999763
vn -0.927152 0.032386 -0.373284
vn -0.706456 0.043933 -0.706392
vn 0.927149 0.032484 -0.373282
vn 0.999763 0.021765 0.000000
vn 0.373340 0.032476 -0.927126
vn 0.706452 0.044045 -0.706389
vn -0.000827 -0.941248 0.337715
vn -0.373260 -0.028852 0.927278
vn 0.000000 -0.018691 0.999825
vn 0.000000 -0.923130 0.384488
vn -0.337740 -0.941239 0.000826
vn -0.927301 -0.028849 0.373202
vn -0.706560 -0.040453 0.706496
vn -0.209061 -0.955300 0.209034
vn 0.000827 -0.941248 0.337715
vn 0.373260 -0.028852 0.927278
vn 0.706560 -0.040453 0.706496
vn 0.209061 -0.955300 0.209034
vn 0.337740 -0.941239 0.000826
vn 0.927301 -0.028849 0.373202
vn 0.999825 -0.018689 0.000000
vn 0.384518 -0.923118 0.000000
vn 0.000000 -0.018691 -0.999825
vn -0.373260 -0.028852 -0.927278
vn -0.000827 -0.941248 -0.337715
vn 0.000000 -0.923130 -0.384488
vn -0.337740 -0.941239 -0.000826
vn -0.927301 -0.028849 -0.373202
vn -0.999825 -0.018689 -0.000000
vn -0.384518 -0.923118 0.000000
vn 0.337740 -0.941239 -0.000826
vn 0.927301 -0.028849 -0.373202
vn 0.706560 -0.040453 -0.706496
vn 0.209061 -0.955300 -0.209034
vn 0.373260 -0.028852 -0.927278
vn 0.000827 -0.941248 -0.337715
vn 0.000000 0.882111 0.471041
vn 0.000000 -0.539598 0.841923
vn 0.000000 -0.539598 0.841923
vn 0.000000 0.882111 0.471042
vn -0.841945 -0.539564 0.000000
vn -0.841945 -0.539564 0.000000
vn -0.471074 0.882094 -0.000001
vn -0.471073 0.882094 0.000000
vn -0.000000 0.882111 0.471041
vn 0.000000 -0.539598 0.841923
vn 0.620101 -0.480628 0.620058
vn 0.426164 0.797999 0.426125
vn 0.841945 -0.539564 0.000000
vn 0.841945 -0.539564 0.000000
vn 0.000000 -0.539598 -0.841923
vn 0.000000 -0.539598 -0.841923
vn -0.620101 -0.480628 -0.620058
vn -0.841945 -0.539564 0.000000
vn -0.471074 0.882094 0.000001
vn -0.426164 0.797999 -0.426125
vn 0.841945 -0.539564 0.000000
vn 0.620101 -0.480628 -0.620058
vn 0.000000 -0.539598 -0.841923
vn -0.209061 -0.955300 -0.209034
vn -0.706560 -0.040453 -0.706496
vn -0.620101 -0.480628 0.620058
vn -0.426164 0.797999 0.426125
vn -0.434625 -0.788798 0.434625
vn -0.616310 0.490227 0.616311
vn -0.434625 -0.788798 -0.434625
s 1
g pCube1
usemtl pCube1SG
f 130/200/1 131/201/2 2/99/3 5/3/4
f 139/211/5 140/212/6 3/100/7 6/6/8
f 129/199/9 130/200/1 5/3/4 8/7/10
f 138/210/11 139/211/5 6/6/8 9/9/12
f 86/145/13 109/174/14 110/175/15 52/12/16
f 93/154/17 111/176/18 112/177/19 55/83/20
f 85/143/21 100/163/22 101/164/23 56/81/24
f 92/152/25 102/165/26 103/166/27 58/82/28
f 136/208/29 137/209/30 13/20/31 16/21/32
f 145/219/33 146/220/34 14/23/35 17/24/36
f 135/206/37 136/208/29 16/21/32 19/95/38
f 144/217/39 145/219/33 17/24/36 20/102/40
f 133/204/41 134/205/42 125/194/43 22/28/44
f 142/215/45 143/216/46 126/195/47 23/97/48
f 132/203/49 133/204/41 22/28/44 118/185/50
f 141/214/51 142/215/45 23/97/48 117/183/52
f 23/30/48 126/196/47 127/197/53 24/31/54
f 116/182/55 117/184/52 23/30/48 24/31/54
f 24/31/54 127/197/53 128/198/56 11/32/57
f 115/181/58 116/182/55 24/31/54 11/32/57
f 123/191/59 124/193/60 21/29/61 25/33/62
f 21/29/61 119/187/63 120/188/64 25/33/62
f 15/22/65 123/191/59 122/190/66 12/19/67
f 25/33/62 120/188/64 121/189/68 10/34/69
f 7/8/70 129/199/9 67/109/71 26/105/72
f 10/34/69 121/189/68 69/113/73 28/70/74
f 8/7/10 138/210/11 71/117/75 27/104/76
f 9/9/12 115/181/58 73/121/77 29/72/78
f 13/20/31 137/209/30 75/125/79 31/67/80
f 12/19/67 122/190/66 77/129/81 32/71/82
f 11/32/57 128/198/56 79/133/83 30/69/84
f 14/23/35 146/220/34 81/137/85 33/68/86
f 89/149/87 68/112/88 35/43/89 61/51/90
f 106/170/91 70/116/92 34/44/93 62/52/94
f 96/158/95 72/120/96 37/46/97 60/54/98
f 114/180/99 74/124/100 38/47/101 59/55/102
f 39/49/103 76/128/104 83/141/105 65/57/106
f 97/159/107 78/132/108 36/45/109 63/53/110
f 105/169/111 80/136/112 41/50/113 66/58/114
f 41/50/113 82/140/115 90/150/116 66/58/114
f 87/147/117 88/148/118 43/60/119 51/11/120
f 44/61/121 107/171/122 108/173/123 53/13/124
f 94/156/125 95/157/126 45/62/127 54/14/128
f 112/178/19 113/179/129 46/63/130 55/15/20
f 47/64/131 84/142/132 85/144/21 56/16/24
f 48/65/133 98/160/134 99/162/135 57/90/136
f 103/167/27 104/168/137 49/66/138 58/18/28
f 49/66/138 91/151/139 92/153/25 58/89/28
f 113/179/129 114/180/99 59/55/102 46/63/130
f 95/157/126 96/158/95 60/54/98 45/62/127
f 88/148/118 89/149/87 61/51/90 43/60/119
f 63/53/110 106/170/91 107/171/122 44/61/121
f 64/56/140 97/159/107 98/160/134 48/65/133
f 65/57/106 83/141/105 84/142/132 47/64/131
f 66/58/114 90/150/116 91/151/139 49/66/138
f 104/168/137 105/169/111 66/58/114 49/66/138
f 67/110/71 27/35/76 35/79/89 68/111/88
f 67/110/71 68/111/88 34/80/93 26/36/72
f 69/114/73 26/107/72 34/106/93 70/115/92
f 69/114/73 70/115/92 36/76/109 28/37/74
f 71/118/75 29/38/78 37/78/97 72/119/96
f 71/118/75 72/119/96 35/79/89 27/35/76
f 73/122/77 30/39/84 38/75/101 74/123/100
f 73/122/77 74/123/100 37/78/97 29/38/78
f 75/126/79 32/40/82 40/77/141 76/127/104
f 75/126/79 76/127/104 39/73/103 31/41/80
f 77/130/81 28/37/74 36/76/109 78/131/108
f 77/130/81 78/131/108 40/77/141 32/40/82
f 79/134/83 33/42/86 41/74/113 80/135/112
f 79/134/83 80/135/112 38/75/101 30/39/84
f 81/138/85 31/41/80 39/73/103 82/139/115
f 81/138/85 82/139/115 41/74/113 33/42/86
f 84/142/132 83/141/105 64/56/140 48/65/133
f 85/144/21 84/142/132 48/65/133 57/17/136
f 99/161/135 100/163/22 85/143/21 57/87/136
f 108/172/123 109/174/14 86/145/13 53/88/124
f 42/59/142 88/148/118 87/147/117 50/91/143
f 62/52/94 89/149/87 88/148/118 42/59/142
f 91/151/139 90/150/116 65/57/106 47/64/131
f 92/153/25 91/151/139 47/64/131 56/16/24
f 101/164/23 102/165/26 92/152/25 56/81/24
f 110/175/15 111/176/18 93/154/17 52/12/16
f 43/60/119 95/157/126 94/156/125 51/11/120
f 61/51/90 96/158/95 95/157/126 43/60/119
f 83/141/105 76/128/104 40/48/141 64/56/140
f 90/150/116 82/140/115 39/49/103 65/57/106
f 98/160/134 97/159/107 63/53/110 44/61/121
f 99/162/135 98/160/134 44/61/121 53/13/124
f 53/88/124 86/145/13 100/163/22 99/161/135
f 101/164/23 100/163/22 86/145/13 52/12/16
f 52/12/16 93/154/17 102/165/26 101/164/23
f 103/166/27 102/165/26 93/154/17 55/83/20
f 46/63/130 104/168/137 103/167/27 55/15/20
f 59/55/102 105/169/111 104/168/137 46/63/130
f 38/47/101 80/136/112 105/169/111 59/55/102
f 107/171/122 106/170/91 62/52/94 42/59/142
f 108/173/123 107/171/122 42/59/142 50/10/143
f 50/86/143 87/146/117 109/174/14 108/172/123
f 110/175/15 109/174/14 87/146/117 51/85/120
f 51/85/120 94/155/125 111/176/18 110/175/15
f 112/177/19 111/176/18 94/155/125 54/84/128
f 45/62/127 113/179/129 112/178/19 54/92/128
f 60/54/98 114/180/99 113/179/129 45/62/127
f 37/46/97 74/124/100 114/180/99 60/54/98
f 35/43/89 72/120/96 96/158/95 61/51/90
f 34/44/93 68/112/88 89/149/87 62/52/94
f 36/45/109 70/116/92 106/170/91 63/53/110
f 40/48/141 78/132/108 97/159/107 64/56/140
f 6/6/8 116/182/55 115/181/58 9/9/12
f 3/103/7 117/184/52 116/182/55 6/6/8
f 140/213/6 141/214/51 117/183/52 3/5/7
f 131/202/2 132/203/49 118/185/50 2/2/3
f 120/188/64 119/187/63 1/1/144 4/4/145
f 121/189/68 120/188/64 4/4/145 7/8/70
f 69/113/73 121/189/68 7/8/70 26/105/72
f 77/129/81 122/190/66 10/34/69 28/70/74
f 18/93/146 124/193/60 123/191/59 15/22/65
f 134/205/42 135/207/37 19/25/38 125/194/43
f 143/216/46 144/218/39 20/98/40 126/195/47
f 127/197/53 126/196/47 20/27/40 17/24/36
f 128/198/56 127/197/53 17/24/36 14/23/35
f 122/190/66 123/191/59 25/33/62 10/34/69
f 4/4/145 130/200/1 129/199/9 7/8/70
f 1/108/144 131/201/2 130/200/1 4/4/145
f 119/186/63 132/203/49 131/202/2 1/101/144
f 21/94/61 133/204/41 132/203/49 119/186/63
f 124/192/60 134/205/42 133/204/41 21/94/61
f 18/26/146 135/207/37 134/205/42 124/192/60
f 15/22/65 136/208/29 135/206/37 18/96/146
f 12/19/67 137/209/30 136/208/29 15/22/65
f 5/3/4 139/211/5 138/210/11 8/7/10
f 2/99/3 140/212/6 139/211/5 5/3/4
f 118/185/50 141/214/51 140/213/6 2/2/3
f 22/28/44 142/215/45 141/214/51 118/185/50
f 125/194/43 143/216/46 142/215/45 22/28/44
f 19/25/38 144/218/39 143/216/46 125/194/43
f 16/21/32 145/219/33 144/217/39 19/95/38
f 13/20/31 146/220/34 145/219/33 16/21/32
f 75/125/79 137/209/30 12/19/67 32/71/82
f 81/137/85 146/220/34 13/20/31 31/67/80
f 79/133/83 128/198/56 14/23/35 33/68/86
f 73/121/77 115/181/58 11/32/57 30/69/84
f 71/117/75 138/210/11 9/9/12 29/72/78
f 67/109/71 129/199/9 8/7/10 27/104/76
