# This file uses centimeters as units for non-parametric coordinates.

mtllib Banner.mtl
g default
v -1.500000 2.029245 0.050000
v -0.500000 2.029245 0.050000
v 0.500000 2.029245 0.050000
v 1.500000 2.029245 0.050000
v -1.500000 3.029245 0.050000
v -0.500000 3.029245 0.050000
v 0.500000 3.029245 0.050000
v 1.500000 3.029245 0.050000
v -1.500000 4.029245 0.050000
v -0.500000 4.029245 0.050000
v 0.500000 4.029245 0.050000
v 1.500000 4.029245 0.050000
v -1.500000 5.029245 0.050000
v -0.500000 5.029245 0.050000
v 0.500000 5.029245 0.050000
v 1.500000 5.029245 0.050000
v -1.500000 6.029245 0.050000
v -0.500000 6.029245 0.050000
v 0.500000 6.029245 0.050000
v 1.500000 6.029245 0.050000
v -1.500000 7.029245 0.050000
v -0.500000 7.029245 0.050000
v 0.500000 7.029245 0.050000
v 1.500000 7.029245 0.050000
v -1.500000 8.029245 0.050000
v -0.500000 8.029245 0.050000
v 0.500000 8.029245 0.050000
v 1.500000 8.029245 0.050000
v -1.500000 9.029245 0.050000
v -0.500000 9.029245 0.050000
v 0.500000 9.029245 0.050000
v 1.500000 9.029245 0.050000
v -1.500000 10.029245 0.050000
v -0.500000 10.029245 0.050000
v 0.500000 10.029245 0.050000
v 1.500000 10.029245 0.050000
v -1.500000 10.029245 -0.050000
v -0.500000 10.029245 -0.050000
v 0.500000 10.029245 -0.050000
v 1.500000 10.029245 -0.050000
v -1.500000 9.029245 -0.050000
v 1.500000 9.029245 -0.050000
v -1.500000 8.029245 -0.050000
v 1.500000 8.029245 -0.050000
v -1.500000 7.029245 -0.050000
v 1.500000 7.029245 -0.050000
v -1.500000 6.029245 -0.050000
v 1.500000 6.029245 -0.050000
v -1.500000 5.029245 -0.050000
v 1.500000 5.029245 -0.050000
v -1.500000 4.029245 -0.050000
v 1.500000 4.029245 -0.050000
v -1.500000 3.029245 -0.050000
v 1.500000 3.029245 -0.050000
v -1.500000 2.029245 -0.050000
v 1.500000 2.029245 -0.050000
v 1.400000 2.029245 0.050000
v 1.400000 10.029245 -0.050000
v 1.400000 10.029245 0.050000
v 1.400000 9.029245 0.050000
v 1.400000 8.029245 0.050000
v 1.400000 7.029245 0.050000
v 1.400000 6.029245 0.050000
v 1.400000 5.029245 0.050000
v 1.400000 4.029245 0.050000
v 1.400000 3.029245 0.050000
v -1.400000 2.029245 0.050000
v -1.400000 10.029245 -0.050000
v -1.400000 10.029245 0.050000
v -1.400000 9.029244 0.050000
v -1.400000 8.029245 0.050000
v -1.400000 7.029245 0.050000
v -1.400000 6.029245 0.050000
v -1.400000 5.029245 0.050000
v -1.400000 4.029245 0.050000
v -1.400000 3.029245 0.050000
v -0.500000 1.063200 0.050000
v 0.500000 1.063200 0.050000
v 0.615241 1.063200 -0.050000
v 0.615241 1.063200 0.050000
v -0.615241 1.063200 -0.050000
v -0.615241 1.063200 0.050000
v 0.000000 0.434147 -0.050000
v 0.000000 0.434147 0.050000
v 0.000000 10.029245 -0.050000
v 0.000000 10.029245 0.050000
v 0.000000 9.029245 0.050000
v 0.000000 8.029245 0.050000
v 0.000000 7.029245 0.050000
v 0.000000 6.029245 0.050000
v 0.000000 5.029245 0.050000
v 0.000000 4.029245 0.050000
v 0.000000 3.029245 0.050000
v 0.000000 2.029245 0.050000
v 0.000000 1.063200 0.050000
v 0.000000 0.526508 0.050000
v 1.400000 11.383423 -0.050000
v 1.500000 11.383423 -0.050000
v -1.400000 11.383423 -0.050000
v -1.500000 11.383423 -0.050000
v 1.400000 11.383423 -0.010615
v 1.400000 11.342282 0.050000
v 1.500000 11.383423 -0.010615
v 1.500000 11.342282 0.050000
v -1.500000 11.383423 -0.010615
v -1.500000 11.342282 0.050000
v -1.400000 11.383423 -0.010615
v -1.400000 11.342282 0.050000
v 1.400000 11.370406 0.026860
v 1.500000 11.370406 0.026860
v -1.500000 11.370406 0.026860
v -1.400000 11.370406 0.026860
v 1.500000 11.370405 -0.050000
v 1.500000 11.342281 -0.050000
v 1.400000 11.370405 -0.050000
v 1.400000 11.342281 -0.050000
v -1.500000 11.370405 -0.050000
v -1.500000 11.342281 -0.050000
v -1.400000 11.370405 -0.050000
v -1.400000 11.342281 -0.050000
vt 0.000774 0.147092
vt 0.009871 0.147092
vt 0.009871 0.238059
vt 0.000774 0.238059
vt 0.000774 0.059215
vt 0.009871 0.059215
vt 0.009871 0.329025
vt 0.000774 0.329025
vt 0.000774 0.001992
vt 0.009871 0.001992
vt 0.009871 0.419991
vt 0.000774 0.419991
vt 0.009871 0.510958
vt 0.000774 0.510958
vt 0.009871 0.601924
vt 0.000774 0.601924
vt 0.009871 0.692891
vt 0.000774 0.692891
vt 0.009871 0.783857
vt 0.000774 0.783857
vt 0.009871 0.874823
vt 0.000774 0.874823
vt 0.009871 0.994265
vt 0.000774 0.994265
vt 0.009871 0.996824
vt 0.002879 0.996824
vt 0.009871 0.998008
vt 0.006288 0.998008
vt 0.017225 0.147092
vt 0.026321 0.147092
vt 0.026321 0.238059
vt 0.017225 0.238059
vt 0.017225 0.059215
vt 0.026321 0.059215
vt 0.026321 0.329025
vt 0.017225 0.329025
vt 0.017225 0.001992
vt 0.026321 0.001992
vt 0.026321 0.419991
vt 0.017225 0.419991
vt 0.026321 0.510958
vt 0.017225 0.510958
vt 0.026321 0.601924
vt 0.017225 0.601924
vt 0.026321 0.692891
vt 0.017225 0.692891
vt 0.026321 0.783857
vt 0.017225 0.783857
vt 0.026321 0.874823
vt 0.017225 0.874823
vt 0.026321 0.994265
vt 0.017225 0.994265
vt 0.024216 0.996824
vt 0.017225 0.996824
vt 0.020807 0.998008
vt 0.017225 0.998008
vt 0.329963 0.001992
vt 0.339060 0.001992
vt 0.339060 0.121434
vt 0.329963 0.121434
vt 0.336955 0.123993
vt 0.329963 0.123993
vt 0.333546 0.125177
vt 0.329963 0.125177
vt 0.348338 0.123993
vt 0.355330 0.123993
vt 0.355330 0.125177
vt 0.351747 0.125177
vt 0.346233 0.121434
vt 0.355330 0.121434
vt 0.346233 0.001992
vt 0.355330 0.001992
vt 0.322790 0.256698
vt 0.313694 0.256698
vt 0.313694 0.174828
vt 0.322790 0.174828
vt 0.313694 0.129345
vt 0.322790 0.129345
vt 0.313694 0.083862
vt 0.322790 0.083862
vt 0.313694 0.001992
vt 0.322790 0.001992
vt 0.362503 0.011089
vt 0.362503 0.007506
vt 0.371599 0.007506
vt 0.371599 0.011089
vt 0.362503 0.004097
vt 0.371599 0.004097
vt 0.362503 0.001992
vt 0.371599 0.001992
vt 0.378772 0.007506
vt 0.387869 0.007506
vt 0.387869 0.011089
vt 0.378772 0.011089
vt 0.378772 0.004097
vt 0.387869 0.004097
vt 0.378772 0.001992
vt 0.387869 0.001992
vt 0.042591 0.238059
vt 0.042591 0.147092
vt 0.124461 0.147092
vt 0.124461 0.238059
vt 0.033494 0.147092
vt 0.033494 0.238059
vt 0.124461 0.059215
vt 0.169944 0.147092
vt 0.169944 0.238059
vt 0.042591 0.329025
vt 0.124461 0.329025
vt 0.113978 0.059215
vt 0.033494 0.329025
vt 0.169944 0.059215
vt 0.215427 0.147092
vt 0.215427 0.238059
vt 0.169944 0.329025
vt 0.042591 0.419991
vt 0.124461 0.419991
vt 0.169944 0.001992
vt 0.169944 0.010394
vt 0.033494 0.419991
vt 0.215427 0.059215
vt 0.297297 0.147092
vt 0.297297 0.238059
vt 0.215427 0.329025
vt 0.169944 0.419991
vt 0.042591 0.510958
vt 0.124461 0.510958
vt 0.225910 0.059215
vt 0.033494 0.510958
vt 0.306393 0.147092
vt 0.306393 0.238059
vt 0.297297 0.329025
vt 0.215427 0.419991
vt 0.169944 0.510958
vt 0.042591 0.601924
vt 0.124461 0.601924
vt 0.033494 0.601924
vt 0.306393 0.329025
vt 0.297297 0.419991
vt 0.215427 0.510958
vt 0.169944 0.601924
vt 0.042591 0.692891
vt 0.124461 0.692891
vt 0.033494 0.692891
vt 0.306393 0.419991
vt 0.297297 0.510958
vt 0.215427 0.601924
vt 0.169944 0.692891
vt 0.042591 0.783857
vt 0.124461 0.783857
vt 0.033494 0.783857
vt 0.306393 0.510958
vt 0.297297 0.601924
vt 0.215427 0.692891
vt 0.169944 0.783857
vt 0.042591 0.874823
vt 0.124461 0.874823
vt 0.033494 0.874823
vt 0.306393 0.601924
vt 0.297297 0.692891
vt 0.215427 0.783857
vt 0.169944 0.874823
vt 0.042591 0.994265
vt 0.033494 0.994265
vt 0.306393 0.692891
vt 0.297297 0.783857
vt 0.215427 0.874823
vt 0.306393 0.783857
vt 0.297297 0.874823
vt 0.306393 0.874823
vt 0.306393 0.994265
vt 0.297297 0.994265
vn -0.000000 0.000000 1.000000
vn -0.000000 0.000000 1.000000
vn -0.000000 0.000000 1.000000
vn -0.000000 0.000000 1.000000
vn 0.000000 0.000000 1.000000
vn 0.000000 0.000000 1.000000
vn 0.000000 0.000000 1.000000
vn 0.000000 0.000000 1.000000
vn 0.000000 0.000000 1.000000
vn 0.000000 0.000000 1.000000
vn 0.000000 0.000000 1.000000
vn 0.000000 0.000000 1.000000
vn 0.000000 0.000000 1.000000
vn -0.000000 0.000000 1.000000
vn 0.000000 0.000000 1.000000
vn 0.000000 0.000000 1.000000
vn 0.000000 0.000000 1.000000
vn 0.000000 0.000000 1.000000
vn 0.000000 0.000000 1.000000
vn -0.000000 0.000000 1.000000
vn 0.000000 0.000000 1.000000
vn 0.000000 0.000000 1.000000
vn 0.000000 0.000000 1.000000
vn 0.000000 0.000000 1.000000
vn 0.000000 0.000000 1.000000
vn -0.000000 0.000000 1.000000
vn 0.000000 0.000000 1.000000
vn 0.000000 0.000000 1.000000
vn 0.000000 0.000000 1.000000
vn 0.000000 0.000000 1.000000
vn -0.000000 0.000000 1.000000
vn -0.000000 0.000000 1.000000
vn 0.000000 0.000000 1.000000
vn 0.000000 0.000000 1.000000
vn 0.000000 0.000000 1.000000
vn 0.000000 0.000000 1.000000
vn -0.000000 0.000000 1.000000
vn -0.000000 0.000000 1.000000
vn 0.000000 0.000000 1.000000
vn 0.000000 0.000000 1.000000
vn 0.000000 0.000000 1.000000
vn 0.000000 0.000000 1.000000
vn -0.000000 0.000000 1.000000
vn -0.000000 0.000000 1.000000
vn 0.000000 0.000000 1.000000
vn 0.000000 0.000000 1.000000
vn 0.000000 0.000000 1.000000
vn 0.000000 0.000000 1.000000
vn 0.000000 0.000000 1.000000
vn -0.000000 0.000000 1.000000
vn 0.000000 0.000000 1.000000
vn 0.000000 0.000000 1.000000
vn 0.000000 0.000000 1.000000
vn 0.000000 0.000000 1.000000
vn 0.000000 1.000000 0.000000
vn 0.000000 1.000000 0.000000
vn 0.000000 1.000000 0.000000
vn 0.000000 1.000000 0.000000
vn 0.000000 1.000000 0.000000
vn 0.000000 1.000000 0.000000
vn 0.000000 1.000000 0.000000
vn 0.000000 1.000000 0.000000
vn 0.000000 1.000000 0.000000
vn 0.000000 1.000000 0.000000
vn 0.000000 1.000000 0.000000
vn 0.000000 1.000000 0.000000
vn 1.000000 0.000000 0.000000
vn 1.000000 0.000000 0.000000
vn 1.000000 0.000000 0.000000
vn 1.000000 0.000000 0.000000
vn 1.000000 0.000000 0.000000
vn 1.000000 0.000000 0.000000
vn 1.000000 0.000000 0.000000
vn 1.000000 0.000000 0.000000
vn 1.000000 0.000000 0.000000
vn 1.000000 0.000000 0.000000
vn 1.000000 0.000000 0.000000
vn 1.000000 0.000000 0.000000
vn 1.000000 0.000000 0.000000
vn 1.000000 0.000000 0.000000
vn 1.000000 0.000000 0.000000
vn 1.000000 0.000000 0.000000
vn 1.000000 0.000000 0.000000
vn 1.000000 0.000000 0.000000
vn -1.000000 0.000000 0.000000
vn -1.000000 0.000000 0.000000
vn -1.000000 0.000000 0.000000
vn -1.000000 0.000000 0.000000
vn -1.000000 0.000000 0.000000
vn -1.000000 0.000000 0.000000
vn -1.000000 0.000000 0.000000
vn -1.000000 0.000000 0.000000
vn -1.000000 0.000000 0.000000
vn -1.000000 0.000000 0.000000
vn -1.000000 0.000000 0.000000
vn -1.000000 0.000000 0.000000
vn -1.000000 0.000000 0.000000
vn -1.000000 0.000000 0.000000
vn -1.000000 0.000000 0.000000
vn -1.000000 0.000000 0.000000
vn -1.000000 0.000000 0.000000
vn -1.000000 0.000000 0.000000
vn 0.000000 1.000000 0.000000
vn 0.000000 1.000000 0.000000
vn 0.000000 1.000000 0.000000
vn 0.000000 1.000000 0.000000
vn 0.000000 1.000000 0.000000
vn 0.000000 1.000000 0.000000
vn 0.000000 0.000000 1.000000
vn 0.000000 0.000000 1.000000
vn 0.000000 0.000000 1.000000
vn 0.000000 0.000000 1.000000
vn 0.000000 0.000000 1.000000
vn 0.000000 0.000000 1.000000
vn 0.000000 0.000000 1.000000
vn 0.000000 0.000000 1.000000
vn 0.000000 0.000000 1.000000
vn -0.000000 0.000000 1.000000
vn -0.000000 0.000000 1.000000
vn -0.000000 0.000000 1.000000
vn 0.000000 0.000000 1.000000
vn 0.000000 0.000000 1.000000
vn 0.000000 0.000000 1.000000
vn 0.000000 0.000000 1.000000
vn 0.737452 -0.675400 0.000000
vn 0.737452 -0.675400 0.000000
vn 0.737452 -0.675400 0.000000
vn 0.737452 -0.675400 0.000000
vn 0.000000 0.000000 1.000000
vn 0.000000 0.000000 1.000000
vn 0.000000 0.000000 1.000000
vn 0.000000 0.000000 1.000000
vn 0.000000 0.000000 1.000000
vn 0.000000 0.000000 1.000000
vn 0.000000 0.000000 1.000000
vn 0.000000 0.000000 1.000000
vn 0.000000 0.000000 1.000000
vn 0.000000 0.000000 1.000000
vn 0.000000 0.000000 1.000000
vn -0.737452 -0.675400 0.000000
vn -0.737452 -0.675400 0.000000
vn -0.737452 -0.675400 0.000000
vn -0.737452 -0.675400 0.000000
vn 0.714912 -0.699215 0.000000
vn 0.714912 -0.699215 0.000000
vn 0.714912 -0.699215 0.000000
vn 0.714912 -0.699215 0.000000
vn -0.000000 0.000000 1.000000
vn -0.000000 0.000000 1.000000
vn 0.000000 0.000000 1.000000
vn -0.714912 -0.699215 0.000000
vn -0.714912 -0.699215 0.000000
vn -0.714912 -0.699215 0.000000
vn -0.714912 -0.699215 0.000000
vn 0.000000 0.000000 1.000000
vn 0.000000 0.000000 1.000000
vn 0.000000 0.000000 1.000000
vn -0.000000 0.000000 1.000000
vn 0.000000 0.000000 1.000000
vn -0.000000 0.000000 1.000000
vn -1.000000 0.000000 0.000000
vn -1.000000 0.000000 0.000000
vn -1.000000 0.000000 0.000000
vn -1.000000 0.000000 0.000000
vn 0.000000 0.000000 1.000000
vn 0.000000 0.000000 1.000000
vn 0.000000 0.017251 0.999851
vn 0.000000 0.017251 0.999851
vn 1.000000 0.000000 0.000000
vn 1.000000 0.000000 0.000000
vn 1.000000 0.000000 0.000000
vn 1.000000 0.000000 0.000000
vn 0.000000 0.000000 1.000000
vn 0.000000 0.000000 1.000000
vn 0.000000 0.017251 0.999851
vn 0.000000 0.017251 0.999851
vn 1.000000 0.000002 0.000000
vn 1.000000 0.000003 0.000000
vn 1.000000 0.000010 0.000000
vn 1.000000 0.000010 0.000000
vn -1.000000 0.000000 0.000000
vn -1.000000 0.000000 0.000000
vn -1.000000 0.000000 0.000000
vn -1.000000 0.000000 0.000000
vn 0.000000 0.944631 0.328135
vn 0.000000 0.827412 0.561595
vn 0.000000 0.827412 0.561595
vn 0.000000 0.944631 0.328135
vn 0.000000 0.944631 0.328135
vn 0.000000 0.827412 0.561595
vn 0.000000 0.827412 0.561595
vn 0.000000 0.944631 0.328135
vn 1.000000 0.000000 0.000000
vn 1.000000 0.000000 0.000000
vn 1.000000 0.000000 0.000000
vn 1.000000 0.000000 0.000000
vn -1.000000 0.000003 0.000000
vn -1.000000 0.000003 0.000000
vn -1.000000 0.000005 0.000000
vn -1.000000 0.000005 0.000000
vn -1.000000 0.000000 0.000000
vn -1.000000 0.000000 0.000000
vn -1.000000 0.000000 0.000000
vn -1.000000 0.000000 0.000000
vn 1.000000 0.000000 0.000000
vn 1.000000 0.000000 0.000000
vn 1.000000 0.000000 0.000000
vn 1.000000 0.000000 0.000000
s 1
g pCube1
usemtl initialShadingGroup
f 76/99/1 67/100/2 2/101/3 6/102/4
f 93/107/5 94/106/6 3/113/7 7/114/8
f 66/123/9 57/122/10 4/130/11 8/131/12
f 75/108/13 76/99/1 6/102/4 10/109/14
f 92/115/15 93/107/5 7/114/8 11/124/16
f 65/132/17 66/123/9 8/131/12 12/138/18
f 74/116/19 75/108/13 10/109/14 14/117/20
f 91/125/21 92/115/15 11/124/16 15/133/22
f 64/139/23 65/132/17 12/138/18 16/145/24
f 73/126/25 74/116/19 14/117/20 18/127/26
f 90/134/27 91/125/21 15/133/22 19/140/28
f 63/146/29 64/139/23 16/145/24 20/152/30
f 72/135/31 73/126/25 18/127/26 22/136/32
f 89/141/33 90/134/27 19/140/28 23/147/34
f 62/153/35 63/146/29 20/152/30 24/159/36
f 71/142/37 72/135/31 22/136/32 26/143/38
f 88/148/39 89/141/33 23/147/34 27/154/40
f 61/160/41 62/153/35 24/159/36 28/165/42
f 70/149/43 71/142/37 26/143/38 30/150/44
f 87/155/45 88/148/39 27/154/40 31/161/46
f 60/166/47 61/160/41 28/165/42 32/168/48
f 69/156/49 70/149/43 30/150/44 34/157/50
f 86/162/51 87/155/45 31/161/46 35/167/52
f 59/169/53 60/166/47 32/168/48 36/170/54
s 2
f 68/73/55 69/74/56 34/75/57 38/76/58
f 85/78/59 86/77/60 35/79/61 39/80/62
s off
f 97/83/63 101/84/64 103/85/65 98/86/66
s 3
f 4/1/67 56/2/68 54/3/69 8/4/70
f 8/4/70 54/3/69 52/7/71 12/8/72
f 12/8/72 52/7/71 50/11/73 16/12/74
f 16/12/74 50/11/73 48/13/75 20/14/76
f 20/14/76 48/13/75 46/15/77 24/16/78
f 24/16/78 46/15/77 44/17/79 28/18/80
f 28/18/80 44/17/79 42/19/81 32/20/82
f 32/20/82 42/19/81 40/21/83 36/22/84
s 4
f 55/29/85 1/30/86 5/31/87 53/32/88
f 53/32/88 5/31/87 9/35/89 51/36/90
f 51/36/90 9/35/89 13/39/91 49/40/92
f 49/40/92 13/39/91 17/41/93 47/42/94
f 47/42/94 17/41/93 21/43/95 45/44/96
f 45/44/96 21/43/95 25/45/97 43/46/98
f 43/46/98 25/45/97 29/47/99 41/48/100
f 41/48/100 29/47/99 33/49/101 37/50/102
s 2
f 35/79/61 59/81/103 58/82/104 39/80/62
s 1
f 31/161/46 60/166/47 59/169/53 35/167/52
f 27/154/40 61/160/41 60/166/47 31/161/46
f 23/147/34 62/153/35 61/160/41 27/154/40
f 19/140/28 63/146/29 62/153/35 23/147/34
f 15/133/22 64/139/23 63/146/29 19/140/28
f 11/124/16 65/132/17 64/139/23 15/133/22
f 7/114/8 66/123/9 65/132/17 11/124/16
f 3/113/7 57/122/10 66/123/9 7/114/8
s off
f 105/91/105 107/92/106 99/93/107 100/94/108
s 1
f 29/151/109 70/149/43 69/156/49 33/158/110
f 25/144/111 71/142/37 70/149/43 29/151/109
f 21/137/112 72/135/31 71/142/37 25/144/111
f 17/129/113 73/126/25 72/135/31 21/137/112
f 13/120/114 74/116/19 73/126/25 17/129/113
f 9/111/115 75/108/13 74/116/19 13/120/114
f 5/104/116 76/99/1 75/108/13 9/111/115
f 1/103/117 67/100/2 76/99/1 5/104/116
s off
f 2/101/118 67/100/119 77/105/120
s 5
f 3/113/121 94/106/122 95/112/123 78/121/124
s off
f 56/2/125 4/1/126 80/5/127 79/6/128
f 4/130/129 57/122/130 78/121/131 80/128/132
f 57/122/133 3/113/134 78/121/135
f 67/100/136 1/103/137 82/110/138 77/105/139
f 1/30/140 55/29/141 81/33/142 82/34/143
f 79/6/144 80/5/145 84/9/146 83/10/147
s 6
f 96/119/148 78/121/149 95/112/150
s off
f 82/34/151 81/33/152 83/37/153 84/38/154
s 2
f 34/75/57 86/77/60 85/78/59 38/76/58
s 1
f 30/150/44 87/155/45 86/162/51 34/157/50
f 26/143/38 88/148/39 87/155/45 30/150/44
f 22/136/32 89/141/33 88/148/39 26/143/38
f 18/127/26 90/134/27 89/141/33 22/136/32
f 14/117/20 91/125/21 90/134/27 18/127/26
f 10/109/14 92/115/15 91/125/21 14/117/20
f 6/102/4 93/107/5 92/115/15 10/109/14
f 2/101/3 94/106/6 93/107/5 6/102/4
s 5
f 95/112/123 94/106/122 2/101/155 77/105/156
s 6
f 77/105/157 96/119/148 95/112/150
f 84/118/158 96/119/148 77/105/157 82/110/159
f 84/118/158 80/128/160 78/121/149 96/119/148
s 7
f 58/57/161 59/58/162 102/59/163 116/60/164
s 8
f 59/169/165 36/170/166 104/171/167 102/172/168
s 9
f 110/26/169 113/25/170 98/27/171 103/28/172
s 10
f 33/158/173 69/156/174 108/163/175 106/164/176
s 11
f 112/65/177 119/66/178 99/67/179 107/68/180
s 12
f 37/50/181 33/49/182 106/51/183 118/52/184
s 8
f 101/84/185 109/87/186 110/88/187 103/85/188
s 10
f 105/91/189 111/95/190 112/96/191 107/92/192
s 8
f 110/88/187 109/87/186 102/89/168 104/90/167
s 10
f 112/96/191 111/95/190 106/97/176 108/98/175
s 9
f 104/24/193 114/23/194 113/25/170 110/26/169
f 36/22/195 40/21/196 114/23/194 104/24/193
s 7
f 115/62/197 109/61/198 101/63/199 97/64/200
f 116/60/164 102/59/163 109/61/198 115/62/197
s 12
f 117/54/201 111/53/202 105/55/203 100/56/204
f 118/52/184 106/51/183 111/53/202 117/54/201
s 11
f 108/69/205 120/70/206 119/66/178 112/65/177
f 69/71/207 68/72/208 120/70/206 108/69/205
